<?xml version="1.0" encoding="UTF-8"?>
<!DOCTYPE svg PUBLIC "-//W3C//DTD SVG 1.1//EN" "http://www.w3.org/Graphics/SVG/1.1/DTD/svg11.dtd">
<svg xmlns="http://www.w3.org/2000/svg" version="1.1" width="327px" height="285px" style="shape-rendering:geometricPrecision; text-rendering:geometricPrecision; image-rendering:optimizeQuality; fill-rule:evenodd; clip-rule:evenodd" xmlns:xlink="http://www.w3.org/1999/xlink">
<g><path style="opacity:1" fill="#050a0c" d="M 303.5,9.5 C 305.857,9.33669 308.19,9.50335 310.5,10C 311.701,10.9025 312.535,12.0692 313,13.5C 313.707,60.6698 313.541,107.836 312.5,155C 313.701,183.854 315.368,212.687 317.5,241.5C 318.84,253.804 313.507,260.804 301.5,262.5C 292.73,261.899 287.563,257.232 286,248.5C 287.858,217.18 289.692,186.013 291.5,155C 290.73,153.225 289.563,151.725 288,150.5C 287.667,150.833 287.333,151.167 287,151.5C 285.784,147.948 284.117,144.615 282,141.5C 281.333,111.5 281.333,81.5 282,51.5C 284.555,34.9067 291.722,20.9067 303.5,9.5 Z"/></g>
<g><path style="opacity:1" fill="#05090a" d="M 43.5,114.5 C 42.5,114.833 41.8333,115.5 41.5,116.5C 40.2101,117.058 39.3768,118.058 39,119.5C 38.3333,134.167 38.3333,148.833 39,163.5C 41.214,189.497 43.3807,215.497 45.5,241.5C 45.8751,252.929 40.7085,260.263 30,263.5C 20.9788,262.176 15.3121,257.176 13,248.5C 12.3333,242.5 12.3333,236.5 13,230.5C 15.8848,200.216 18.0515,169.883 19.5,139.5C 18.9429,133.936 18.9429,128.769 19.5,124C 19.336,119.67 17.336,116.504 13.5,114.5C 9.49131,108.975 7.15798,102.808 6.5,96C 7.51992,73.5537 8.68658,51.0537 10,28.5C 13.9127,22.3825 18.246,22.0492 23,27.5C 26.665,22.5429 30.8317,22.2096 35.5,26.5C 36.8139,25.6872 37.9805,24.6872 39,23.5C 39.85,24.4239 40.85,24.4239 42,23.5C 44.8089,23.7519 46.8089,25.0852 48,27.5C 49.9007,52.4565 50.5673,77.4565 50,102.5C 48.8761,107.109 46.7094,111.109 43.5,114.5 Z"/></g>
<g><path style="opacity:1" fill="#040508" d="M 125.5,33.5 C 152.169,33.3334 178.835,33.5 205.5,34C 222.546,48.0477 239.879,61.7144 257.5,75C 259.709,76.8734 261.542,79.04 263,81.5C 269.017,102.714 274.517,124.048 279.5,145.5C 274.527,165.862 269.36,186.196 264,206.5C 263.484,209.034 262.317,211.2 260.5,213C 242.788,227.714 224.788,242.047 206.5,256C 179.5,256.667 152.5,256.667 125.5,256C 107.291,243.059 89.6247,229.392 72.5,215C 69.9453,213.445 68.1119,211.278 67,208.5C 61.1831,187.232 55.6831,165.899 50.5,144.5C 56.1495,123.57 61.6495,102.57 67,81.5C 68.1119,78.7215 69.9453,76.5549 72.5,75C 90.353,61.3029 108.02,47.4696 125.5,33.5 Z"/></g>
<g><path style="opacity:1" fill="#4bf2e5" d="M 297.5,144.5 C 295.496,143.327 293.996,141.66 293,139.5C 292.73,136.776 292.23,134.109 291.5,131.5C 292.167,118.5 292.833,105.5 293.5,92.5C 292.087,84.233 291.42,75.733 291.5,67C 291.667,62.1667 291.833,57.3333 292,52.5C 294.259,48.7157 295.926,44.7157 297,40.5C 297.822,37.8832 298.322,35.2165 298.5,32.5C 299.449,30.2228 300.782,28.2228 302.5,26.5C 303.721,25.9717 304.887,25.305 306,24.5C 306.667,46.5 306.667,68.5 306,90.5C 305.346,89.3044 304.846,89.3044 304.5,90.5C 305.13,93.9469 305.463,97.4469 305.5,101C 305.092,112.075 304.425,123.075 303.5,134C 304.262,138.365 304.596,142.698 304.5,147C 303.687,148.885 302.353,149.551 300.5,149C 300.616,147.732 300.949,146.398 301.5,145C 300.318,143.232 298.985,143.065 297.5,144.5 Z"/></g>
<g><path style="opacity:1" fill="#bee6e4" d="M 31.5,86.5 C 29.6017,85.2655 27.935,85.5989 26.5,87.5C 26.5,68.1667 26.5,48.8333 26.5,29.5C 28.1667,29.5 29.8333,29.5 31.5,29.5C 31.5,48.5 31.5,67.5 31.5,86.5 Z"/></g>
<g><path style="opacity:1" fill="#839195" d="M 289.5,43.5 C 289.59,46.1522 288.924,48.4855 287.5,50.5C 287.41,47.8478 288.076,45.5145 289.5,43.5 Z"/></g>
<g><path style="opacity:1" fill="#caf2f0" d="M 43.5,58.5 C 43.6653,62.1817 43.4986,65.8484 43,69.5C 41.6692,74.8531 40.5025,80.1864 39.5,85.5C 39.5,66.8333 39.5,48.1667 39.5,29.5C 40.8333,29.5 42.1667,29.5 43.5,29.5C 43.5,39.1667 43.5,48.8333 43.5,58.5 Z"/></g>
<g><path style="opacity:1" fill="#66cecb" d="M 166.5,51.5 C 177.167,51.5 187.833,51.5 198.5,51.5C 198.5,51.8333 198.5,52.1667 198.5,52.5C 188.167,52.5 177.833,52.5 167.5,52.5C 167.5,57.5 167.5,62.5 167.5,67.5C 174.571,67.6781 181.571,68.5114 188.5,70C 189.656,71.6408 191.656,72.8074 194.5,73.5C 194.5,73.8333 194.5,74.1667 194.5,74.5C 185.478,71.0954 176.144,69.0954 166.5,68.5C 166.5,62.8333 166.5,57.1667 166.5,51.5 Z"/></g>
<g><path style="opacity:1" fill="#4df0e0" d="M 198.5,52.5 C 202.051,54.1108 205.051,56.4442 207.5,59.5C 209.645,62.4982 211.645,65.6648 213.5,69C 212.258,72.3567 211.424,72.19 211,68.5C 209.989,69.3366 208.822,69.67 207.5,69.5C 207.312,71.1033 207.812,72.4366 209,73.5C 209.333,72.8333 209.667,72.1667 210,71.5C 210.14,73.5213 210.307,75.3547 210.5,77C 209.256,77.4561 208.423,76.9561 208,75.5C 207.667,75.8333 207.333,76.1667 207,76.5C 206.517,75.552 206.351,74.552 206.5,73.5C 205.5,73.5 204.5,73.5 203.5,73.5C 203.312,71.8967 203.812,70.5634 205,69.5C 205.333,69.8333 205.667,70.1667 206,70.5C 206.991,69.0611 208.324,68.0611 210,67.5C 210.167,67.1667 210.333,66.8333 210.5,66.5C 209.667,66.1667 208.833,65.8333 208,65.5C 203.361,67.9817 198.861,70.6483 194.5,73.5C 191.656,72.8074 189.656,71.6408 188.5,70C 181.571,68.5114 174.571,67.6781 167.5,67.5C 167.5,62.5 167.5,57.5 167.5,52.5C 177.833,52.5 188.167,52.5 198.5,52.5 Z"/></g>
<g><path style="opacity:1" fill="#d0e7e8" d="M 307.5,20.5 C 304.428,21.3013 302.762,23.3013 302.5,26.5C 300.782,28.2228 299.449,30.2228 298.5,32.5C 297.249,34.3819 296.082,36.3819 295,38.5C 292.984,44.3797 291.484,50.3797 290.5,56.5C 289.502,84.9951 289.169,113.662 289.5,142.5C 288.21,141.942 287.377,140.942 287,139.5C 286.175,109.762 286.342,80.0949 287.5,50.5C 288.924,48.4855 289.59,46.1522 289.5,43.5C 292.248,32.0938 297.915,22.4271 306.5,14.5C 307.466,16.396 307.799,18.396 307.5,20.5 Z"/></g>
<g><path style="opacity:1" fill="#071817" d="M 199.5,48.5 C 200.167,48.8333 200.833,49.1667 201.5,49.5C 216.313,61.4695 231.313,73.3029 246.5,85C 248.439,86.4321 249.772,88.2654 250.5,90.5C 250.5,91.1667 250.5,91.8333 250.5,92.5C 251.229,97.1304 251.563,101.797 251.5,106.5C 250.115,100.813 248.282,95.1465 246,89.5C 233.291,79.2852 220.458,69.2852 207.5,59.5C 205.051,56.4442 202.051,54.1108 198.5,52.5C 198.5,52.1667 198.5,51.8333 198.5,51.5C 199.239,51.631 199.906,51.4643 200.5,51C 199.748,50.3292 199.414,49.4959 199.5,48.5 Z"/></g>
<g><path style="opacity:1" fill="#57e7de" d="M 204.5,42.5 C 222.206,55.6871 239.539,69.3538 256.5,83.5C 255.237,86.4324 253.237,88.7657 250.5,90.5C 249.772,88.2654 248.439,86.4321 246.5,85C 231.313,73.3029 216.313,61.4695 201.5,49.5C 203.357,47.7185 204.357,45.3852 204.5,42.5 Z"/></g>
<g><path style="opacity:1" fill="#c2d6d5" d="M 19.5,87.5 C 18.9674,79.8462 18.1341,72.1795 17,64.5C 16.7908,73.9991 15.9574,83.3324 14.5,92.5C 14.6493,96.8589 14.9827,101.192 15.5,105.5C 14.5902,103.981 13.7568,102.315 13,100.5C 12.468,77.1382 13.1346,53.8048 15,30.5C 16.3561,29.6198 17.8561,29.2865 19.5,29.5C 19.5,48.8333 19.5,68.1667 19.5,87.5 Z"/></g>
<g><path style="opacity:1" fill="#77e9e2" d="M 298.5,32.5 C 298.322,35.2165 297.822,37.8832 297,40.5C 295.926,44.7157 294.259,48.7157 292,52.5C 291.833,57.3333 291.667,62.1667 291.5,67C 291.42,75.733 292.087,84.233 293.5,92.5C 292.833,105.5 292.167,118.5 291.5,131.5C 292.23,134.109 292.73,136.776 293,139.5C 293.996,141.66 295.496,143.327 297.5,144.5C 298.441,146.05 299.107,147.716 299.5,149.5C 298.833,149.167 298.167,148.833 297.5,148.5C 295.925,145.418 293.758,142.751 291,140.5C 290.5,112.502 290.333,84.502 290.5,56.5C 291.484,50.3797 292.984,44.3797 295,38.5C 296.082,36.3819 297.249,34.3819 298.5,32.5 Z"/></g>
<g><path style="opacity:1" fill="#52739f" d="M 131.5,52.5 C 142.988,51.5051 154.655,51.1717 166.5,51.5C 166.5,57.1667 166.5,62.8333 166.5,68.5C 147.057,68.5985 130.057,74.9319 115.5,87.5C 115.879,83.2854 118.212,80.7854 122.5,80C 123.46,78.5806 124.293,77.0806 125,75.5C 130.618,74.8141 136.118,72.9807 141.5,70C 145.668,69.6247 149.668,68.6247 153.5,67C 157.17,66.7208 160.837,66.8875 164.5,67.5C 164.777,62.7668 164.443,58.1001 163.5,53.5C 152.988,52.7301 142.321,52.3968 131.5,52.5 Z"/></g>
<g><path style="opacity:1" fill="#50eadc" d="M 207.5,59.5 C 220.458,69.2852 233.291,79.2852 246,89.5C 248.282,95.1465 250.115,100.813 251.5,106.5C 251.629,108.216 251.962,109.883 252.5,111.5C 246.701,116.428 242.368,122.428 239.5,129.5C 233.366,104.574 218.699,86.5745 195.5,75.5C 195.5,74.8333 195.167,74.5 194.5,74.5C 194.5,74.1667 194.5,73.8333 194.5,73.5C 198.861,70.6483 203.361,67.9817 208,65.5C 208.833,65.8333 209.667,66.1667 210.5,66.5C 210.333,66.8333 210.167,67.1667 210,67.5C 208.324,68.0611 206.991,69.0611 206,70.5C 205.667,70.1667 205.333,69.8333 205,69.5C 203.812,70.5634 203.312,71.8967 203.5,73.5C 204.5,73.5 205.5,73.5 206.5,73.5C 206.351,74.552 206.517,75.552 207,76.5C 207.333,76.1667 207.667,75.8333 208,75.5C 208.423,76.9561 209.256,77.4561 210.5,77C 210.307,75.3547 210.14,73.5213 210,71.5C 209.667,72.1667 209.333,72.8333 209,73.5C 207.812,72.4366 207.312,71.1033 207.5,69.5C 208.822,69.67 209.989,69.3366 211,68.5C 211.424,72.19 212.258,72.3567 213.5,69C 211.645,65.6648 209.645,62.4982 207.5,59.5 Z"/></g>
<g><path style="opacity:1" fill="#4e72ab" d="M 131.5,52.5 C 142.321,52.3968 152.988,52.7301 163.5,53.5C 164.443,58.1001 164.777,62.7668 164.5,67.5C 160.837,66.8875 157.17,66.7208 153.5,67C 149.668,68.6247 145.668,69.6247 141.5,70C 136.118,72.9807 130.618,74.8141 125,75.5C 124.293,77.0806 123.46,78.5806 122.5,80C 118.212,80.7854 115.879,83.2854 115.5,87.5C 110.822,92.1793 106.489,97.1793 102.5,102.5C 101.222,102.218 100.222,101.551 99.5,100.5C 99.369,99.7611 99.5357,99.0944 100,98.5C 100.718,99.4506 101.551,99.6172 102.5,99C 101.624,97.414 100.624,95.914 99.5,94.5C 99.8914,95.8905 99.0581,96.8905 97,97.5C 95.6015,96.9491 94.2682,96.6158 93,96.5C 92.7879,99.3315 92.6213,101.998 92.5,104.5C 94.4613,105.848 94.6279,107.181 93,108.5C 92.6667,108.167 92.3333,107.833 92,107.5C 90,108.167 88,108.833 86,109.5C 85.2569,107.355 84.4235,107.189 83.5,109C 84.7087,112.101 86.3754,112.268 88.5,109.5C 89.5407,111.991 90.3741,111.991 91,109.5C 93.4813,112.709 92.648,114.542 88.5,115C 87.5337,117.697 87.5337,120.53 88.5,123.5C 88.1924,124.308 87.6924,124.975 87,125.5C 86.6667,123.5 86.3333,121.5 86,119.5C 84.3731,121.312 82.8731,121.479 81.5,120C 82.5174,117.213 82.6841,114.38 82,111.5C 81.6667,113.5 81.3333,115.5 81,117.5C 80.6667,116.5 80.3333,115.5 80,114.5C 79.6124,116.715 78.6124,118.048 77,118.5C 76.7836,123.841 76.6169,129.174 76.5,134.5C 78.3068,135.395 79.6401,136.728 80.5,138.5C 79.2679,140.683 79.2679,142.849 80.5,145C 79.9777,145.95 79.311,146.784 78.5,147.5C 79.585,148.784 80.2517,150.284 80.5,152C 79.9268,154.006 79.9268,155.84 80.5,157.5C 79.6364,159.197 78.3031,160.363 76.5,161C 78.7916,163.245 79.125,165.745 77.5,168.5C 75.8879,163.394 74.2213,158.227 72.5,153C 71.207,146.125 71.207,138.958 72.5,131.5C 75.0661,117.961 78.5661,104.627 83,91.5C 98.7521,77.9072 114.919,64.9072 131.5,52.5 Z"/></g>
<g><path style="opacity:1" fill="#49699f" d="M 154.5,73.5 C 162.534,73.3018 170.534,73.6351 178.5,74.5C 186.721,76.1283 194.387,79.1283 201.5,83.5C 197.881,82.7564 194.215,82.423 190.5,82.5C 189.833,82.5 189.167,82.5 188.5,82.5C 185.851,80.8906 182.851,80.0572 179.5,80C 166.839,78.6652 154.506,79.9985 142.5,84C 139.771,86.2589 137.104,88.4256 134.5,90.5C 132.302,92.0981 129.969,93.4314 127.5,94.5C 126.078,94.7086 124.745,95.2086 123.5,96C 119.644,100.355 115.977,104.855 112.5,109.5C 111.675,110.386 110.675,110.719 109.5,110.5C 109.037,113.221 108.371,115.888 107.5,118.5C 107.167,119.833 106.833,121.167 106.5,122.5C 105.279,123.028 104.113,123.695 103,124.5C 99.0425,141.096 98.5425,157.763 101.5,174.5C 90.6116,149.601 92.4449,125.601 107,102.5C 119.334,87.0838 135.167,77.4171 154.5,73.5 Z"/></g>
<g><path style="opacity:1" fill="#3877a1" d="M 188.5,82.5 C 178.181,81.5659 167.847,81.3992 157.5,82C 156.584,82.2784 155.918,82.7784 155.5,83.5C 150.711,83.6538 146.378,84.9871 142.5,87.5C 139.673,88.1084 137.007,89.1084 134.5,90.5C 137.104,88.4256 139.771,86.2589 142.5,84C 154.506,79.9985 166.839,78.6652 179.5,80C 182.851,80.0572 185.851,80.8906 188.5,82.5 Z"/></g>
<g><path style="opacity:1" fill="#76cfca" d="M 43.5,58.5 C 45.0213,71.9804 45.5213,85.6471 45,99.5C 44.2432,101.315 43.4098,102.981 42.5,104.5C 43.4419,99.1946 43.6086,93.8613 43,88.5C 42.296,86.273 41.1294,85.9397 39.5,87.5C 39.5,86.8333 39.5,86.1667 39.5,85.5C 40.5025,80.1864 41.6692,74.8531 43,69.5C 43.4986,65.8484 43.6653,62.1817 43.5,58.5 Z"/></g>
<g><path style="opacity:1" fill="#50ede0" d="M 192.5,84.5 C 196.913,84.6871 201.246,85.3538 205.5,86.5C 206.167,86.8333 206.833,87.1667 207.5,87.5C 214.928,92.2609 220.594,98.5943 224.5,106.5C 224.721,109.279 224.388,111.946 223.5,114.5C 218.918,117.739 214.584,121.405 210.5,125.5C 207.587,127.493 204.587,128.493 201.5,128.5C 200.942,127.21 199.942,126.377 198.5,126C 199.672,125.581 200.672,124.915 201.5,124C 197.421,120.799 194.088,116.966 191.5,112.5C 188.763,114.102 185.763,114.936 182.5,115C 183.759,115.923 185.092,116.757 186.5,117.5C 185.289,118.874 184.289,120.374 183.5,122C 183.645,122.772 183.978,123.439 184.5,124C 183.167,124.667 182.167,125.667 181.5,127C 183.751,126.793 186.085,126.627 188.5,126.5C 188.5,127.5 188.5,128.5 188.5,129.5C 191.775,129.233 192.608,130.233 191,132.5C 190.676,130.431 189.842,130.098 188.5,131.5C 184.536,130.519 181.203,128.519 178.5,125.5C 179.833,123.5 179.833,121.5 178.5,119.5C 179.885,118.449 180.885,117.116 181.5,115.5C 179.257,114.526 176.924,114.192 174.5,114.5C 174.5,113.5 174.5,112.5 174.5,111.5C 173.127,111.657 171.793,111.49 170.5,111C 173.95,109.641 174.45,107.474 172,104.5C 170.926,103.382 169.76,102.382 168.5,101.5C 169.723,99.5401 171.056,97.7068 172.5,96C 170.833,95.3333 169.167,95.3333 167.5,96C 168.711,96.8928 168.711,97.7261 167.5,98.5C 166.571,97.3112 166.238,95.9778 166.5,94.5C 169.525,94.769 172.192,93.9357 174.5,92C 171.86,91.161 169.527,91.661 167.5,93.5C 166.833,93.1667 166.167,92.8333 165.5,92.5C 165.891,93.7185 165.224,94.5518 163.5,95C 164.41,97.2897 163.41,98.4563 160.5,98.5C 154.828,96.4252 149.161,95.4252 143.5,95.5C 143.665,99.1817 143.499,102.848 143,106.5C 141.933,105.809 140.766,105.309 139.5,105C 140.025,104.308 140.692,103.808 141.5,103.5C 142.197,99.6229 142.864,95.7896 143.5,92C 140.364,90.9595 137.864,91.7928 136,94.5C 135.601,94.2716 135.435,93.9382 135.5,93.5C 137.729,91.2426 140.062,89.2426 142.5,87.5C 146.378,84.9871 150.711,83.6538 155.5,83.5C 159.641,82.9914 163.808,82.6581 168,82.5C 176.167,83.2147 184.334,83.8813 192.5,84.5 Z"/></g>
<g><path style="opacity:1" fill="#50f2e1" d="M 201.5,128.5 C 199.028,133.824 195.528,138.49 191,142.5C 190.517,143.448 190.351,144.448 190.5,145.5C 188.801,145.34 187.134,145.506 185.5,146C 181.959,152.607 176.626,157.107 169.5,159.5C 168.695,161.915 167.695,164.249 166.5,166.5C 165.675,167.386 164.675,167.719 163.5,167.5C 163.719,168.675 163.386,169.675 162.5,170.5C 159.698,171.469 157.698,173.302 156.5,176C 152.526,178.746 148.193,180.746 143.5,182C 137.314,182.177 131.314,183.01 125.5,184.5C 121.856,184.404 118.356,183.738 115,182.5C 115.046,184.313 114.88,185.979 114.5,187.5C 115.025,188.192 115.692,188.692 116.5,189C 115.888,190.303 115.554,191.47 115.5,192.5C 114.5,191 113.5,189.5 112.5,188C 113.33,186.535 113.496,185.035 113,183.5C 111.951,185.107 110.451,185.773 108.5,185.5C 106.949,181.142 105.616,176.642 104.5,172C 104.585,170.893 104.919,169.893 105.5,169C 103.934,162.974 102.934,156.807 102.5,150.5C 104.083,143.589 104.75,136.589 104.5,129.5C 108.381,122.078 112.548,114.745 117,107.5C 120.167,105 123,102.167 125.5,99C 128.721,96.9426 132.054,95.1092 135.5,93.5C 135.435,93.9382 135.601,94.2716 136,94.5C 137.864,91.7928 140.364,90.9595 143.5,92C 142.864,95.7896 142.197,99.6229 141.5,103.5C 140.692,103.808 140.025,104.308 139.5,105C 140.766,105.309 141.933,105.809 143,106.5C 143.499,102.848 143.665,99.1817 143.5,95.5C 149.161,95.4252 154.828,96.4252 160.5,98.5C 163.41,98.4563 164.41,97.2897 163.5,95C 165.224,94.5518 165.891,93.7185 165.5,92.5C 166.167,92.8333 166.833,93.1667 167.5,93.5C 169.527,91.661 171.86,91.161 174.5,92C 172.192,93.9357 169.525,94.769 166.5,94.5C 166.238,95.9778 166.571,97.3112 167.5,98.5C 168.711,97.7261 168.711,96.8928 167.5,96C 169.167,95.3333 170.833,95.3333 172.5,96C 171.056,97.7068 169.723,99.5401 168.5,101.5C 169.76,102.382 170.926,103.382 172,104.5C 174.45,107.474 173.95,109.641 170.5,111C 171.793,111.49 173.127,111.657 174.5,111.5C 174.5,112.5 174.5,113.5 174.5,114.5C 176.924,114.192 179.257,114.526 181.5,115.5C 180.885,117.116 179.885,118.449 178.5,119.5C 179.833,121.5 179.833,123.5 178.5,125.5C 181.203,128.519 184.536,130.519 188.5,131.5C 189.842,130.098 190.676,130.431 191,132.5C 192.608,130.233 191.775,129.233 188.5,129.5C 188.5,128.5 188.5,127.5 188.5,126.5C 186.085,126.627 183.751,126.793 181.5,127C 182.167,125.667 183.167,124.667 184.5,124C 183.978,123.439 183.645,122.772 183.5,122C 184.289,120.374 185.289,118.874 186.5,117.5C 185.092,116.757 183.759,115.923 182.5,115C 185.763,114.936 188.763,114.102 191.5,112.5C 194.088,116.966 197.421,120.799 201.5,124C 200.672,124.915 199.672,125.581 198.5,126C 199.942,126.377 200.942,127.21 201.5,128.5 Z"/></g>
<g><path style="opacity:1" fill="#5aebdf" d="M 31.5,86.5 C 33.7291,90.0549 36.3958,90.3882 39.5,87.5C 41.1294,85.9397 42.296,86.273 43,88.5C 43.6086,93.8613 43.4419,99.1946 42.5,104.5C 40.6719,108.842 37.8386,112.509 34,115.5C 32.9914,117.025 32.4914,118.692 32.5,120.5C 31.6692,132.66 31.1692,144.993 31,157.5C 30.8124,146.63 29.9791,135.963 28.5,125.5C 28.6641,122.813 28.4974,120.146 28,117.5C 23.9931,113.826 20.3264,109.826 17,105.5C 16.1826,99.9836 16.3493,94.6503 17.5,89.5C 17.8417,88.6618 18.5084,88.3284 19.5,88.5C 22.0835,89.9377 24.4168,89.6044 26.5,87.5C 27.935,85.5989 29.6017,85.2655 31.5,86.5 Z"/></g>
<g><path style="opacity:1" fill="#4bf2e1" d="M 17.5,89.5 C 22.4461,90.644 27.4461,90.644 32.5,89.5C 32.3601,91.1238 33.0267,92.2904 34.5,93C 30.5,94.3333 30.5,95.6667 34.5,97C 33.7203,98.073 33.887,99.2396 35,100.5C 36.1628,98.7148 36.8295,96.7148 37,94.5C 37.8333,96 39,97.1667 40.5,98C 37.5192,99.3795 36.8525,101.546 38.5,104.5C 39.451,103.674 40.451,103.508 41.5,104C 39.7013,107.04 37.368,109.54 34.5,111.5C 33.0518,109.638 31.3852,108.972 29.5,109.5C 30.0164,110.758 29.3497,111.758 27.5,112.5C 24.4665,111.518 22.7998,109.518 22.5,106.5C 21.1779,106.67 20.0113,106.337 19,105.5C 17.7288,100.246 17.2288,94.9127 17.5,89.5 Z"/></g>
<g><path style="opacity:1" fill="#33759c" d="M 127.5,94.5 C 123.87,98.631 120.037,102.631 116,106.5C 113.274,110.702 110.441,114.702 107.5,118.5C 108.371,115.888 109.037,113.221 109.5,110.5C 110.675,110.719 111.675,110.386 112.5,109.5C 115.977,104.855 119.644,100.355 123.5,96C 124.745,95.2086 126.078,94.7086 127.5,94.5 Z"/></g>
<g><path style="opacity:1" fill="#62dfe5" d="M 142.5,87.5 C 140.062,89.2426 137.729,91.2426 135.5,93.5C 132.054,95.1092 128.721,96.9426 125.5,99C 123,102.167 120.167,105 117,107.5C 112.548,114.745 108.381,122.078 104.5,129.5C 104.4,126.892 105.067,124.558 106.5,122.5C 106.833,121.167 107.167,119.833 107.5,118.5C 110.441,114.702 113.274,110.702 116,106.5C 120.037,102.631 123.87,98.631 127.5,94.5C 129.969,93.4314 132.302,92.0981 134.5,90.5C 137.007,89.1084 139.673,88.1084 142.5,87.5 Z"/></g>
<g><path style="opacity:1" fill="#4e6790" d="M 256.5,83.5 C 260.258,94.1887 263.258,105.189 265.5,116.5C 264.001,115.322 263.001,113.655 262.5,111.5C 261.415,104.48 259.415,97.8135 256.5,91.5C 255.5,91.5 254.5,91.5 253.5,91.5C 253.802,94.0593 253.468,96.3926 252.5,98.5C 252.405,96.2143 251.738,94.2143 250.5,92.5C 250.5,91.8333 250.5,91.1667 250.5,90.5C 253.237,88.7657 255.237,86.4324 256.5,83.5 Z"/></g>
<g><path style="opacity:1" fill="#4b669f" d="M 265.5,116.5 C 265.5,116.833 265.5,117.167 265.5,117.5C 265.849,121.382 266.515,125.215 267.5,129C 265.738,132.274 266.572,134.774 270,136.5C 271.987,146.052 270.487,155.052 265.5,163.5C 264.914,163.291 264.414,162.957 264,162.5C 263.73,165.224 263.23,167.891 262.5,170.5C 263.002,171.716 263.335,172.883 263.5,174C 262.313,175.019 261.313,176.186 260.5,177.5C 261.428,178.768 261.595,180.101 261,181.5C 260.346,180.304 259.846,180.304 259.5,181.5C 260.562,184.103 260.728,186.77 260,189.5C 258.542,194.452 257.209,199.452 256,204.5C 253.621,208.677 250.788,209.51 247.5,207C 248.126,206.25 248.626,205.416 249,204.5C 249.893,205.711 250.726,205.711 251.5,204.5C 252.248,202.668 253.248,201.001 254.5,199.5C 254.069,198.707 253.735,197.873 253.5,197C 255.408,190.606 257.408,184.273 259.5,178C 259.043,177.586 258.709,177.086 258.5,176.5C 259.819,171.226 260.819,165.892 261.5,160.5C 261.884,156.414 262.717,152.414 264,148.5C 264.667,145.5 264.667,142.5 264,139.5C 260.005,125.85 256.172,112.183 252.5,98.5C 253.468,96.3926 253.802,94.0593 253.5,91.5C 254.5,91.5 255.5,91.5 256.5,91.5C 259.415,97.8135 261.415,104.48 262.5,111.5C 263.001,113.655 264.001,115.322 265.5,116.5 Z"/></g>
<g><path style="opacity:1" fill="#c9f9f9" d="M 290.5,56.5 C 290.333,84.502 290.5,112.502 291,140.5C 293.758,142.751 295.925,145.418 297.5,148.5C 295.5,147.167 293.5,145.833 291.5,144.5C 290.5,144.167 289.833,143.5 289.5,142.5C 289.169,113.662 289.502,84.9951 290.5,56.5 Z"/></g>
<g><path style="opacity:1" fill="#2a2531" d="M 13.5,114.5 C 12.8333,115.167 12.8333,115.167 13.5,114.5 Z"/></g>
<g><path style="opacity:1" fill="#2a2531" d="M 43.5,114.5 C 44.8333,115.167 44.8333,115.167 43.5,114.5 Z"/></g>
<g><path style="opacity:1" fill="#2a2531" d="M 41.5,116.5 C 42.8333,117.167 42.8333,117.167 41.5,116.5 Z"/></g>
<g><path style="opacity:1" fill="#0e1319" d="M 199.5,48.5 C 199.414,49.4959 199.748,50.3292 200.5,51C 199.906,51.4643 199.239,51.631 198.5,51.5C 187.833,51.5 177.167,51.5 166.5,51.5C 154.655,51.1717 142.988,51.5051 131.5,52.5C 114.919,64.9072 98.7521,77.9072 83,91.5C 78.5661,104.627 75.0661,117.961 72.5,131.5C 70.8031,135.599 69.4698,139.932 68.5,144.5C 72.5489,160.045 76.8823,175.378 81.5,190.5C 81.4207,193.271 81.9207,195.937 83,198.5C 89.9222,205.358 97.4222,211.358 105.5,216.5C 109.141,219.805 112.808,223.138 116.5,226.5C 118.5,227.833 120.5,229.167 122.5,230.5C 125.446,233.313 128.779,235.646 132.5,237.5C 137.975,238.489 143.642,238.822 149.5,238.5C 166.577,238.818 183.577,238.485 200.5,237.5C 201.833,237.5 202.5,238.167 202.5,239.5C 201.909,240.151 201.243,240.818 200.5,241.5C 177.843,242.5 155.176,242.833 132.5,242.5C 120.238,233.58 108.238,224.246 96.5,214.5C 91.2063,210.378 86.0397,206.044 81,201.5C 78.3884,193.168 75.8884,184.835 73.5,176.5C 70.6755,165.535 68.0088,154.535 65.5,143.5C 70.6643,124.844 75.8309,106.177 81,87.5C 97.3564,74.3094 113.856,61.3094 130.5,48.5C 153.663,47.1714 176.663,47.1714 199.5,48.5 Z"/></g>
<g><path style="opacity:1" fill="#3781a2" d="M 223.5,114.5 C 223.833,115.833 224.167,117.167 224.5,118.5C 223.211,117.499 221.878,117.666 220.5,119C 216.66,121.674 213.327,124.841 210.5,128.5C 209.583,129.127 208.583,129.461 207.5,129.5C 208.5,128.167 209.5,126.833 210.5,125.5C 214.584,121.405 218.918,117.739 223.5,114.5 Z"/></g>
<g><path style="opacity:1" fill="#060a16" d="M 166.5,68.5 C 176.144,69.0954 185.478,71.0954 194.5,74.5C 195.167,74.5 195.5,74.8333 195.5,75.5C 197.168,77.8577 199.501,79.5243 202.5,80.5C 204.605,82.5916 206.272,84.9249 207.5,87.5C 206.833,87.1667 206.167,86.8333 205.5,86.5C 204.564,85.0256 203.23,84.0256 201.5,83.5C 194.387,79.1283 186.721,76.1283 178.5,74.5C 178.082,73.7784 177.416,73.2784 176.5,73C 168.988,72.1782 161.655,72.3448 154.5,73.5C 135.167,77.4171 119.334,87.0838 107,102.5C 92.4449,125.601 90.6116,149.601 101.5,174.5C 101.755,176.967 102.755,178.967 104.5,180.5C 106.671,184.844 109.337,188.844 112.5,192.5C 112.67,193.822 112.337,194.989 111.5,196C 113.939,196.533 114.605,197.7 113.5,199.5C 109.126,195.128 105.126,190.461 101.5,185.5C 95.6517,174.748 91.6517,163.415 89.5,151.5C 88.7614,133.732 93.0947,117.399 102.5,102.5C 106.489,97.1793 110.822,92.1793 115.5,87.5C 130.057,74.9319 147.057,68.5985 166.5,68.5 Z"/></g>
<g><path style="opacity:1" fill="#337393" d="M 190.5,82.5 C 194.215,82.423 197.881,82.7564 201.5,83.5C 203.23,84.0256 204.564,85.0256 205.5,86.5C 201.246,85.3538 196.913,84.6871 192.5,84.5C 191.833,83.8333 191.167,83.1667 190.5,82.5 Z"/></g>
<g><path style="opacity:1" fill="#5ecadc" d="M 188.5,82.5 C 189.167,82.5 189.833,82.5 190.5,82.5C 191.167,83.1667 191.833,83.8333 192.5,84.5C 184.334,83.8813 176.167,83.2147 168,82.5C 163.808,82.6581 159.641,82.9914 155.5,83.5C 155.918,82.7784 156.584,82.2784 157.5,82C 167.847,81.3992 178.181,81.5659 188.5,82.5 Z"/></g>
<g><path style="opacity:1" fill="#202e4c" d="M 154.5,73.5 C 161.655,72.3448 168.988,72.1782 176.5,73C 177.416,73.2784 178.082,73.7784 178.5,74.5C 170.534,73.6351 162.534,73.3018 154.5,73.5 Z"/></g>
<g><path style="opacity:1" fill="#c0f6f5" d="M 19.5,87.5 C 19.5,87.8333 19.5,88.1667 19.5,88.5C 18.5084,88.3284 17.8417,88.6618 17.5,89.5C 16.3493,94.6503 16.1826,99.9836 17,105.5C 20.3264,109.826 23.9931,113.826 28,117.5C 28.4974,120.146 28.6641,122.813 28.5,125.5C 28.849,145.212 28.1823,164.879 26.5,184.5C 25.6676,194.485 25.0009,204.485 24.5,214.5C 23.8333,217.5 23.1667,220.5 22.5,223.5C 24.0629,196.176 25.3962,168.676 26.5,141C 26.3333,133.167 26.1667,125.333 26,117.5C 25.6174,116.944 25.1174,116.611 24.5,116.5C 20.3717,113.71 17.3717,110.043 15.5,105.5C 14.9827,101.192 14.6493,96.8589 14.5,92.5C 15.9574,83.3324 16.7908,73.9991 17,64.5C 18.1341,72.1795 18.9674,79.8462 19.5,87.5 Z"/></g>
<g><path style="opacity:1" fill="#b8f5f5" d="M 252.5,111.5 C 255.321,121.785 257.988,132.119 260.5,142.5C 260.425,145.206 260.092,147.873 259.5,150.5C 256.028,164.909 252.362,179.242 248.5,193.5C 243.872,199.463 238.872,205.13 233.5,210.5C 227.461,215.178 221.461,219.845 215.5,224.5C 208.973,228.931 201.973,232.598 194.5,235.5C 191.833,235.5 189.167,235.5 186.5,235.5C 186.285,233.821 186.952,232.821 188.5,232.5C 188.56,233.043 188.893,233.376 189.5,233.5C 191.438,230.921 193.271,230.921 195,233.5C 195.595,229.918 196.929,229.584 199,232.5C 198.805,230.874 198.805,229.207 199,227.5C 200.044,228.623 200.71,229.956 201,231.5C 201.113,229.026 202.113,227.026 204,225.5C 203.923,226.738 204.089,227.738 204.5,228.5C 209.278,225.881 213.611,222.715 217.5,219C 216.672,218.085 215.672,217.419 214.5,217C 219.464,216.58 219.631,215.747 215,214.5C 213.105,215.689 211.105,216.689 209,217.5C 207.49,215.792 205.99,214.126 204.5,212.5C 204.167,213.167 203.833,213.833 203.5,214.5C 202.914,214.291 202.414,213.957 202,213.5C 196.602,216.373 191.102,218.706 185.5,220.5C 179.845,222.039 174.178,222.373 168.5,221.5C 168.5,221.167 168.5,220.833 168.5,220.5C 204.032,217.131 227.198,198.465 238,164.5C 240.576,152.908 241.076,141.242 239.5,129.5C 242.368,122.428 246.701,116.428 252.5,111.5 Z"/></g>
<g><path style="opacity:1" fill="#506a98" d="M 99.5,100.5 C 100.222,101.551 101.222,102.218 102.5,102.5C 93.0947,117.399 88.7614,133.732 89.5,151.5C 88.1883,149.257 87.5217,146.59 87.5,143.5C 87.6667,140.833 87.8333,138.167 88,135.5C 88.9248,131.097 90.0914,126.764 91.5,122.5C 90.5244,120.877 91.0244,119.543 93,118.5C 95.3612,112.188 97.5279,106.188 99.5,100.5 Z"/></g>
<g><path style="opacity:1" fill="#5deae0" d="M 307.5,20.5 C 307.812,64.8569 307.479,109.19 306.5,153.5C 305.615,164.001 304.948,174.668 304.5,185.5C 303.833,187.5 303.167,189.5 302.5,191.5C 300.832,189.521 300.166,187.188 300.5,184.5C 300.791,172.783 300.458,161.116 299.5,149.5C 299.107,147.716 298.441,146.05 297.5,144.5C 298.985,143.065 300.318,143.232 301.5,145C 300.949,146.398 300.616,147.732 300.5,149C 302.353,149.551 303.687,148.885 304.5,147C 304.596,142.698 304.262,138.365 303.5,134C 304.425,123.075 305.092,112.075 305.5,101C 305.463,97.4469 305.13,93.9469 304.5,90.5C 304.846,89.3044 305.346,89.3044 306,90.5C 306.667,68.5 306.667,46.5 306,24.5C 304.887,25.305 303.721,25.9717 302.5,26.5C 302.762,23.3013 304.428,21.3013 307.5,20.5 Z"/></g>
<g><path style="opacity:1" fill="#0b121b" d="M 250.5,92.5 C 251.738,94.2143 252.405,96.2143 252.5,98.5C 256.172,112.183 260.005,125.85 264,139.5C 264.667,142.5 264.667,145.5 264,148.5C 262.717,152.414 261.884,156.414 261.5,160.5C 257.535,174.434 253.369,188.434 249,202.5C 233.913,215.427 218.413,227.761 202.5,239.5C 202.5,238.167 201.833,237.5 200.5,237.5C 205.795,233.54 210.795,229.207 215.5,224.5C 221.461,219.845 227.461,215.178 233.5,210.5C 238.082,207.099 242.582,203.433 247,199.5C 248.128,197.655 248.628,195.655 248.5,193.5C 252.362,179.242 256.028,164.909 259.5,150.5C 261.584,148.007 261.917,145.34 260.5,142.5C 257.988,132.119 255.321,121.785 252.5,111.5C 251.962,109.883 251.629,108.216 251.5,106.5C 251.563,101.797 251.229,97.1304 250.5,92.5 Z"/></g>
<g><path style="opacity:1" fill="#dbeff0" d="M 204.5,42.5 C 204.357,45.3852 203.357,47.7185 201.5,49.5C 200.833,49.1667 200.167,48.8333 199.5,48.5C 176.663,47.1714 153.663,47.1714 130.5,48.5C 113.856,61.3094 97.3564,74.3094 81,87.5C 75.8309,106.177 70.6643,124.844 65.5,143.5C 68.0088,154.535 70.6755,165.535 73.5,176.5C 70.8883,177.779 68.5549,179.445 66.5,181.5C 63.0151,169.229 59.6818,156.895 56.5,144.5C 62.4636,124.314 67.9636,103.981 73,83.5C 91.1213,69.7138 108.955,55.5471 126.5,41C 139.5,40.8333 152.5,40.6667 165.5,40.5C 178.851,40.5008 191.851,41.1675 204.5,42.5 Z"/></g>
<g><path style="opacity:1" fill="#4c70a9" d="M 224.5,118.5 C 225.555,122.558 226.555,126.725 227.5,131C 227.415,132.107 227.081,133.107 226.5,134C 227.786,137.233 228.453,140.733 228.5,144.5C 228.302,151.884 227.635,159.217 226.5,166.5C 226.128,170.297 224.794,173.63 222.5,176.5C 221.504,176.414 220.671,176.748 220,177.5C 218.134,181.892 215.3,185.559 211.5,188.5C 210.614,189.325 210.281,190.325 210.5,191.5C 208.176,191.662 206.509,192.828 205.5,195C 200.704,196.115 196.371,198.781 192.5,203C 191.101,203.595 189.768,203.428 188.5,202.5C 187.252,203.04 186.085,203.707 185,204.5C 184.667,204.167 184.333,203.833 184,203.5C 182.992,205.259 181.492,206.426 179.5,207C 169.544,208.732 159.544,208.898 149.5,207.5C 147.379,207.675 145.379,207.341 143.5,206.5C 143.586,205.504 143.252,204.671 142.5,204C 138.905,202.398 135.571,200.398 132.5,198C 134.657,196.915 134.824,195.749 133,194.5C 132.612,195.428 131.945,196.095 131,196.5C 129.14,194.799 126.973,193.799 124.5,193.5C 124.275,191.284 125.108,189.617 127,188.5C 129.653,188.682 132.32,189.015 135,189.5C 137.507,187.845 140.341,187.011 143.5,187C 147.245,183.481 151.578,182.314 156.5,183.5C 157.5,181.833 158.833,180.5 160.5,179.5C 161.086,179.709 161.586,180.043 162,180.5C 164.554,177.305 166.054,173.638 166.5,169.5C 167.5,167.833 168.833,166.5 170.5,165.5C 171.552,165.649 172.552,165.483 173.5,165C 177.833,161.167 182.167,157.333 186.5,153.5C 190.616,149.723 193.95,145.39 196.5,140.5C 199.833,136.5 203.5,132.833 207.5,129.5C 208.583,129.461 209.583,129.127 210.5,128.5C 213.327,124.841 216.66,121.674 220.5,119C 221.878,117.666 223.211,117.499 224.5,118.5 Z"/></g>
<g><path style="opacity:1" fill="#60e1e8" d="M 210.5,125.5 C 209.5,126.833 208.5,128.167 207.5,129.5C 203.5,132.833 199.833,136.5 196.5,140.5C 194.5,142.167 192.5,143.833 190.5,145.5C 190.351,144.448 190.517,143.448 191,142.5C 195.528,138.49 199.028,133.824 201.5,128.5C 204.587,128.493 207.587,127.493 210.5,125.5 Z"/></g>
<g><path style="opacity:1" fill="#367fa1" d="M 106.5,122.5 C 105.067,124.558 104.4,126.892 104.5,129.5C 102.932,131.811 102.098,134.478 102,137.5C 100.762,151.994 101.596,166.328 104.5,180.5C 102.755,178.967 101.755,176.967 101.5,174.5C 98.5425,157.763 99.0425,141.096 103,124.5C 104.113,123.695 105.279,123.028 106.5,122.5 Z"/></g>
<g><path style="opacity:1" fill="#4e749a" d="M 224.5,118.5 C 229.145,126.085 231.145,134.418 230.5,143.5C 230.943,151.604 229.61,159.27 226.5,166.5C 227.635,159.217 228.302,151.884 228.5,144.5C 228.453,140.733 227.786,137.233 226.5,134C 227.081,133.107 227.415,132.107 227.5,131C 226.555,126.725 225.555,122.558 224.5,118.5 Z"/></g>
<g><path style="opacity:1" fill="#41696e" d="M 260.5,142.5 C 261.917,145.34 261.584,148.007 259.5,150.5C 260.092,147.873 260.425,145.206 260.5,142.5 Z"/></g>
<g><path style="opacity:1" fill="#3b7ba2" d="M 196.5,140.5 C 193.95,145.39 190.616,149.723 186.5,153.5C 182.167,157.333 177.833,161.167 173.5,165C 172.552,165.483 171.552,165.649 170.5,165.5C 176.887,158.446 183.554,151.779 190.5,145.5C 192.5,143.833 194.5,142.167 196.5,140.5 Z"/></g>
<g><path style="opacity:1" fill="#5fdede" d="M 32.5,120.5 C 32.5,132.167 32.5,143.833 32.5,155.5C 31.7773,167.337 31.7773,179.004 32.5,190.5C 32.5,195.167 32.5,199.833 32.5,204.5C 31.6909,202.708 31.1909,200.708 31,198.5C 30.6667,189.833 30.3333,181.167 30,172.5C 29.6667,172.167 29.3333,171.833 29,171.5C 28.502,174.482 28.3354,177.482 28.5,180.5C 27.8333,181.833 27.1667,183.167 26.5,184.5C 28.1823,164.879 28.849,145.212 28.5,125.5C 29.9791,135.963 30.8124,146.63 31,157.5C 31.1692,144.993 31.6692,132.66 32.5,120.5 Z"/></g>
<g><path style="opacity:1" fill="#536b98" d="M 72.5,131.5 C 71.207,138.958 71.207,146.125 72.5,153C 74.2213,158.227 75.8879,163.394 77.5,168.5C 78.6238,175.871 79.9571,183.205 81.5,190.5C 76.8823,175.378 72.5489,160.045 68.5,144.5C 69.4698,139.932 70.8031,135.599 72.5,131.5 Z"/></g>
<g><path style="opacity:1" fill="#d3eef1" d="M 224.5,106.5 C 226.223,108.253 227.723,110.253 229,112.5C 243.713,148.972 235.88,179.472 205.5,204C 195.363,210.323 184.363,214.157 172.5,215.5C 169.482,215.665 166.482,215.498 163.5,215C 167.211,214.825 170.878,214.325 174.5,213.5C 175.641,212.575 175.641,211.741 174.5,211C 176.833,210.667 179.167,210.333 181.5,210C 182.056,209.617 182.389,209.117 182.5,208.5C 200.306,203.354 213.64,192.688 222.5,176.5C 224.794,173.63 226.128,170.297 226.5,166.5C 229.61,159.27 230.943,151.604 230.5,143.5C 231.145,134.418 229.145,126.085 224.5,118.5C 224.167,117.167 223.833,115.833 223.5,114.5C 224.388,111.946 224.721,109.279 224.5,106.5 Z"/></g>
<g><path style="opacity:1" fill="#4d70ac" d="M 99.5,100.5 C 97.5279,106.188 95.3612,112.188 93,118.5C 91.0244,119.543 90.5244,120.877 91.5,122.5C 90.0914,126.764 88.9248,131.097 88,135.5C 87.8333,138.167 87.6667,140.833 87.5,143.5C 87.5217,146.59 88.1883,149.257 89.5,151.5C 91.6517,163.415 95.6517,174.748 101.5,185.5C 103.322,189.145 105.156,192.811 107,196.5C 112.301,200.892 117.467,205.392 122.5,210C 123.448,210.483 124.448,210.649 125.5,210.5C 125.5,211.5 125.5,212.5 125.5,213.5C 124.127,213.343 122.793,213.51 121.5,214C 122.517,215.049 122.684,216.216 122,217.5C 119.942,219.068 117.775,220.402 115.5,221.5C 111.911,220.219 108.577,218.552 105.5,216.5C 97.4222,211.358 89.9222,205.358 83,198.5C 81.9207,195.937 81.4207,193.271 81.5,190.5C 79.9571,183.205 78.6238,175.871 77.5,168.5C 79.125,165.745 78.7916,163.245 76.5,161C 78.3031,160.363 79.6364,159.197 80.5,157.5C 79.9268,155.84 79.9268,154.006 80.5,152C 80.2517,150.284 79.585,148.784 78.5,147.5C 79.311,146.784 79.9777,145.95 80.5,145C 79.2679,142.849 79.2679,140.683 80.5,138.5C 79.6401,136.728 78.3068,135.395 76.5,134.5C 76.6169,129.174 76.7836,123.841 77,118.5C 78.6124,118.048 79.6124,116.715 80,114.5C 80.3333,115.5 80.6667,116.5 81,117.5C 81.3333,115.5 81.6667,113.5 82,111.5C 82.6841,114.38 82.5174,117.213 81.5,120C 82.8731,121.479 84.3731,121.312 86,119.5C 86.3333,121.5 86.6667,123.5 87,125.5C 87.6924,124.975 88.1924,124.308 88.5,123.5C 87.5337,120.53 87.5337,117.697 88.5,115C 92.648,114.542 93.4813,112.709 91,109.5C 90.3741,111.991 89.5407,111.991 88.5,109.5C 86.3754,112.268 84.7087,112.101 83.5,109C 84.4235,107.189 85.2569,107.355 86,109.5C 88,108.833 90,108.167 92,107.5C 92.3333,107.833 92.6667,108.167 93,108.5C 94.6279,107.181 94.4613,105.848 92.5,104.5C 92.6213,101.998 92.7879,99.3315 93,96.5C 94.2682,96.6158 95.6015,96.9491 97,97.5C 99.0581,96.8905 99.8914,95.8905 99.5,94.5C 100.624,95.914 101.624,97.414 102.5,99C 101.551,99.6172 100.718,99.4506 100,98.5C 99.5357,99.0944 99.369,99.7611 99.5,100.5 Z"/></g>
<g><path style="opacity:1" fill="#50ccd1" d="M 306.5,153.5 C 306.5,159.5 306.5,165.5 306.5,171.5C 305.881,182.489 305.548,193.489 305.5,204.5C 304.51,198.355 304.177,192.022 304.5,185.5C 304.948,174.668 305.615,164.001 306.5,153.5 Z"/></g>
<g><path style="opacity:1" fill="#3c9da9" d="M 32.5,155.5 C 33.4889,160.975 33.8222,166.642 33.5,172.5C 32.5872,178.441 32.2539,184.441 32.5,190.5C 31.7773,179.004 31.7773,167.337 32.5,155.5 Z"/></g>
<g><path style="opacity:1" fill="#5de6e3" d="M 104.5,129.5 C 104.75,136.589 104.083,143.589 102.5,150.5C 102.934,156.807 103.934,162.974 105.5,169C 104.919,169.893 104.585,170.893 104.5,172C 105.616,176.642 106.949,181.142 108.5,185.5C 110.451,185.773 111.951,185.107 113,183.5C 113.496,185.035 113.33,186.535 112.5,188C 113.5,189.5 114.5,191 115.5,192.5C 115.554,191.47 115.888,190.303 116.5,189C 115.692,188.692 115.025,188.192 114.5,187.5C 114.88,185.979 115.046,184.313 115,182.5C 118.356,183.738 121.856,184.404 125.5,184.5C 131.314,183.01 137.314,182.177 143.5,182C 148.193,180.746 152.526,178.746 156.5,176C 157.698,173.302 159.698,171.469 162.5,170.5C 163.386,169.675 163.719,168.675 163.5,167.5C 164.675,167.719 165.675,167.386 166.5,166.5C 167.695,164.249 168.695,161.915 169.5,159.5C 176.626,157.107 181.959,152.607 185.5,146C 187.134,145.506 188.801,145.34 190.5,145.5C 183.554,151.779 176.887,158.446 170.5,165.5C 168.833,166.5 167.5,167.833 166.5,169.5C 162.97,171.677 159.97,174.511 157.5,178C 155.33,179.586 152.996,180.92 150.5,182C 140.595,184.344 130.595,186.177 120.5,187.5C 119.833,187.833 119.167,188.167 118.5,188.5C 119.193,189.518 119.859,190.518 120.5,191.5C 121.694,194.705 123.694,197.371 126.5,199.5C 131.055,202.564 135.722,205.397 140.5,208C 139.619,208.708 138.953,209.542 138.5,210.5C 128.495,206.505 119.829,200.505 112.5,192.5C 109.337,188.844 106.671,184.844 104.5,180.5C 101.596,166.328 100.762,151.994 102,137.5C 102.098,134.478 102.932,131.811 104.5,129.5 Z"/></g>
<g><path style="opacity:1" fill="#3987a8" d="M 33.5,172.5 C 34.4872,177.305 34.8205,182.305 34.5,187.5C 35.0333,206.3 35.0333,224.967 34.5,243.5C 34.8245,236.313 34.4912,229.313 33.5,222.5C 32.9258,216.516 32.5925,210.516 32.5,204.5C 32.5,199.833 32.5,195.167 32.5,190.5C 32.2539,184.441 32.5872,178.441 33.5,172.5 Z"/></g>
<g><path style="opacity:1" fill="#4379a7" d="M 166.5,169.5 C 166.054,173.638 164.554,177.305 162,180.5C 161.586,180.043 161.086,179.709 160.5,179.5C 158.833,180.5 157.5,181.833 156.5,183.5C 151.578,182.314 147.245,183.481 143.5,187C 140.341,187.011 137.507,187.845 135,189.5C 132.32,189.015 129.653,188.682 127,188.5C 125.108,189.617 124.275,191.284 124.5,193.5C 126.973,193.799 129.14,194.799 131,196.5C 131.945,196.095 132.612,195.428 133,194.5C 134.824,195.749 134.657,196.915 132.5,198C 135.571,200.398 138.905,202.398 142.5,204C 143.252,204.671 143.586,205.504 143.5,206.5C 134.667,203.252 127,198.252 120.5,191.5C 119.859,190.518 119.193,189.518 118.5,188.5C 119.167,188.167 119.833,187.833 120.5,187.5C 130.595,186.177 140.595,184.344 150.5,182C 152.996,180.92 155.33,179.586 157.5,178C 159.97,174.511 162.97,171.677 166.5,169.5 Z"/></g>
<g><path style="opacity:1" fill="#50e4d8" d="M 73.5,176.5 C 75.8884,184.835 78.3884,193.168 81,201.5C 86.0397,206.044 91.2063,210.378 96.5,214.5C 97.038,216.117 97.3713,217.784 97.5,219.5C 94.4299,219.632 91.4299,219.299 88.5,218.5C 83.8272,214.666 78.9938,210.999 74,207.5C 71.1866,198.911 68.6866,190.245 66.5,181.5C 68.5549,179.445 70.8883,177.779 73.5,176.5 Z"/></g>
<g><path style="opacity:1" fill="#cce1e2" d="M 24.5,116.5 C 25.1174,116.611 25.6174,116.944 26,117.5C 26.1667,125.333 26.3333,133.167 26.5,141C 25.3962,168.676 24.0629,196.176 22.5,223.5C 22,232.25 22,240.916 22.5,249.5C 21.8333,249.833 21.1667,250.167 20.5,250.5C 20.0133,249.527 19.5133,248.527 19,247.5C 18.8333,243.833 18.6667,240.167 18.5,236.5C 20.2503,211.829 22.0836,187.163 24,162.5C 24.4999,147.17 24.6666,131.837 24.5,116.5 Z"/></g>
<g><path style="opacity:1" fill="#3190a5" d="M 306.5,171.5 C 307.49,177.31 307.823,183.31 307.5,189.5C 306.505,201.655 306.171,213.989 306.5,226.5C 305.508,219.352 305.175,212.019 305.5,204.5C 305.548,193.489 305.881,182.489 306.5,171.5 Z"/></g>
<g><path style="opacity:1" fill="#4f828c" d="M 248.5,193.5 C 248.628,195.655 248.128,197.655 247,199.5C 242.582,203.433 238.082,207.099 233.5,210.5C 238.872,205.13 243.872,199.463 248.5,193.5 Z"/></g>
<g><path style="opacity:1" fill="#7be3ea" d="M 120.5,191.5 C 127,198.252 134.667,203.252 143.5,206.5C 145.379,207.341 147.379,207.675 149.5,207.5C 150.167,208.167 150.833,208.833 151.5,209.5C 149.801,209.34 148.134,209.506 146.5,210C 147.802,212.022 149.468,213.522 151.5,214.5C 146.917,213.66 142.584,212.326 138.5,210.5C 138.953,209.542 139.619,208.708 140.5,208C 135.722,205.397 131.055,202.564 126.5,199.5C 123.694,197.371 121.694,194.705 120.5,191.5 Z"/></g>
<g><path style="opacity:1" fill="#4d729c" d="M 222.5,176.5 C 213.64,192.688 200.306,203.354 182.5,208.5C 172.219,210.62 161.886,210.953 151.5,209.5C 150.833,208.833 150.167,208.167 149.5,207.5C 159.544,208.898 169.544,208.732 179.5,207C 181.492,206.426 182.992,205.259 184,203.5C 184.333,203.833 184.667,204.167 185,204.5C 186.085,203.707 187.252,203.04 188.5,202.5C 189.768,203.428 191.101,203.595 192.5,203C 196.371,198.781 200.704,196.115 205.5,195C 206.509,192.828 208.176,191.662 210.5,191.5C 210.281,190.325 210.614,189.325 211.5,188.5C 215.3,185.559 218.134,181.892 220,177.5C 220.671,176.748 221.504,176.414 222.5,176.5 Z"/></g>
<g><path style="opacity:1" fill="#4ff1e4" d="M 300.5,184.5 C 300.166,187.188 300.832,189.521 302.5,191.5C 303.414,208.648 304.08,225.648 304.5,242.5C 303.817,247.186 301.151,249.186 296.5,248.5C 295.833,248.5 295.167,248.5 294.5,248.5C 296.331,227.863 297.831,207.197 299,186.5C 299.278,185.584 299.778,184.918 300.5,184.5 Z"/></g>
<g><path style="opacity:1" fill="#60eded" d="M 32.5,204.5 C 32.5925,210.516 32.9258,216.516 33.5,222.5C 33.7729,230.888 33.4396,239.221 32.5,247.5C 29.418,249.181 26.0847,249.848 22.5,249.5C 22,240.916 22,232.25 22.5,223.5C 23.1667,220.5 23.8333,217.5 24.5,214.5C 24.4429,225.189 24.2763,235.856 24,246.5C 25.2988,246.034 26.7988,246.034 28.5,246.5C 28.3505,245.448 28.5172,244.448 29,243.5C 30.5581,244.345 31.5581,243.679 32,241.5C 32.1667,239.5 32.3333,237.5 32.5,235.5C 32.4035,228.049 31.4035,220.882 29.5,214C 30.1271,212.262 30.4604,210.429 30.5,208.5C 29.0812,199.218 28.4146,189.885 28.5,180.5C 28.3354,177.482 28.502,174.482 29,171.5C 29.3333,171.833 29.6667,172.167 30,172.5C 30.3333,181.167 30.6667,189.833 31,198.5C 31.1909,200.708 31.6909,202.708 32.5,204.5 Z"/></g>
<g><path style="opacity:1" fill="#0a1112" d="M 195.5,75.5 C 218.699,86.5745 233.366,104.574 239.5,129.5C 241.076,141.242 240.576,152.908 238,164.5C 227.198,198.465 204.032,217.131 168.5,220.5C 154.561,221.406 141.561,218.406 129.5,211.5C 123.884,207.885 118.55,203.885 113.5,199.5C 114.605,197.7 113.939,196.533 111.5,196C 112.337,194.989 112.67,193.822 112.5,192.5C 119.829,200.505 128.495,206.505 138.5,210.5C 142.584,212.326 146.917,213.66 151.5,214.5C 158.519,216.628 165.519,216.961 172.5,215.5C 184.363,214.157 195.363,210.323 205.5,204C 235.88,179.472 243.713,148.972 229,112.5C 227.723,110.253 226.223,108.253 224.5,106.5C 220.594,98.5943 214.928,92.2609 207.5,87.5C 206.272,84.9249 204.605,82.5916 202.5,80.5C 199.501,79.5243 197.168,77.8577 195.5,75.5 Z"/></g>
<g><path style="opacity:1" fill="#b3e5ea" d="M 182.5,208.5 C 182.389,209.117 182.056,209.617 181.5,210C 179.167,210.333 176.833,210.667 174.5,211C 175.641,211.741 175.641,212.575 174.5,213.5C 170.878,214.325 167.211,214.825 163.5,215C 166.482,215.498 169.482,215.665 172.5,215.5C 165.519,216.961 158.519,216.628 151.5,214.5C 149.468,213.522 147.802,212.022 146.5,210C 148.134,209.506 149.801,209.34 151.5,209.5C 161.886,210.953 172.219,210.62 182.5,208.5 Z"/></g>
<g><path style="opacity:1" fill="#4c739c" d="M 101.5,185.5 C 105.126,190.461 109.126,195.128 113.5,199.5C 118.55,203.885 123.884,207.885 129.5,211.5C 124.8,216.199 120.466,221.199 116.5,226.5C 112.808,223.138 109.141,219.805 105.5,216.5C 108.577,218.552 111.911,220.219 115.5,221.5C 117.775,220.402 119.942,219.068 122,217.5C 122.684,216.216 122.517,215.049 121.5,214C 122.793,213.51 124.127,213.343 125.5,213.5C 125.5,212.5 125.5,211.5 125.5,210.5C 124.448,210.649 123.448,210.483 122.5,210C 117.467,205.392 112.301,200.892 107,196.5C 105.156,192.811 103.322,189.145 101.5,185.5 Z"/></g>
<g><path style="opacity:1" fill="#b2f9f6" d="M 188.5,232.5 C 189.605,228.946 189.605,225.446 188.5,222C 187.498,220.844 186.498,220.344 185.5,220.5C 191.102,218.706 196.602,216.373 202,213.5C 202.414,213.957 202.914,214.291 203.5,214.5C 203.833,213.833 204.167,213.167 204.5,212.5C 205.99,214.126 207.49,215.792 209,217.5C 211.105,216.689 213.105,215.689 215,214.5C 219.631,215.747 219.464,216.58 214.5,217C 215.672,217.419 216.672,218.085 217.5,219C 213.611,222.715 209.278,225.881 204.5,228.5C 204.089,227.738 203.923,226.738 204,225.5C 202.113,227.026 201.113,229.026 201,231.5C 200.71,229.956 200.044,228.623 199,227.5C 198.805,229.207 198.805,230.874 199,232.5C 196.929,229.584 195.595,229.918 195,233.5C 193.271,230.921 191.438,230.921 189.5,233.5C 188.893,233.376 188.56,233.043 188.5,232.5 Z"/></g>
<g><path style="opacity:1" fill="#cff0f1" d="M 291.5,144.5 C 293.5,145.833 295.5,147.167 297.5,148.5C 298.167,148.833 298.833,149.167 299.5,149.5C 300.458,161.116 300.791,172.783 300.5,184.5C 299.778,184.918 299.278,185.584 299,186.5C 297.831,207.197 296.331,227.863 294.5,248.5C 293.833,248.5 293.167,248.5 292.5,248.5C 291.372,241.58 291.205,234.58 292,227.5C 294.71,202.888 296.377,178.222 297,153.5C 295.311,150.333 293.478,147.333 291.5,144.5 Z"/></g>
<g><path style="opacity:1" fill="#59dad9" d="M 96.5,214.5 C 108.238,224.246 120.238,233.58 132.5,242.5C 131.123,244.289 130.123,246.289 129.5,248.5C 129.158,249.338 128.492,249.672 127.5,249.5C 114.188,239.517 101.188,229.183 88.5,218.5C 91.4299,219.299 94.4299,219.632 97.5,219.5C 97.3713,217.784 97.038,216.117 96.5,214.5 Z"/></g>
<g><path style="opacity:1" fill="#5fe7de" d="M 129.5,211.5 C 141.561,218.406 154.561,221.406 168.5,220.5C 168.5,220.833 168.5,221.167 168.5,221.5C 168.062,221.435 167.728,221.601 167.5,222C 168.759,222.923 170.092,223.757 171.5,224.5C 172.128,226.258 173.128,227.758 174.5,229C 172.355,230.818 172.355,232.318 174.5,233.5C 173.398,234.176 172.398,234.842 171.5,235.5C 160.521,236.376 149.521,237.043 138.5,237.5C 139.609,236.71 140.942,236.21 142.5,236C 151.192,235.646 159.859,234.979 168.5,234C 168.833,233.667 169.167,233.333 169.5,233C 168.736,230.931 168.236,228.764 168,226.5C 164.702,221.562 160.202,220.229 154.5,222.5C 151.226,220.906 148.059,219.906 145,219.5C 143.734,222.466 142.567,225.466 141.5,228.5C 140.41,227.609 140.41,226.609 141.5,225.5C 140.271,224.719 138.938,224.219 137.5,224C 138.649,222.256 139.983,222.089 141.5,223.5C 142.262,222.372 142.929,221.205 143.5,220C 139.506,218.54 135.672,216.707 132,214.5C 128.139,215.52 127.639,217.353 130.5,220C 129.044,220.423 128.544,221.256 129,222.5C 130.314,221.687 131.481,220.687 132.5,219.5C 133.382,220.76 134.382,221.926 135.5,223C 131.25,223.232 130.583,224.732 133.5,227.5C 132.5,228.333 131.5,229.167 130.5,230C 131.654,230.914 131.487,231.747 130,232.5C 127.887,230.729 128.053,229.229 130.5,228C 128.305,225.935 126.805,223.435 126,220.5C 125.097,221.701 123.931,222.535 122.5,223C 123.451,223.718 123.617,224.551 123,225.5C 122.107,224.289 121.274,224.289 120.5,225.5C 121.456,227.075 122.123,228.742 122.5,230.5C 120.5,229.167 118.5,227.833 116.5,226.5C 120.466,221.199 124.8,216.199 129.5,211.5 Z"/></g>
<g><path style="opacity:1" fill="#56f1e1" d="M 138.5,237.5 C 136.5,237.5 134.5,237.5 132.5,237.5C 128.779,235.646 125.446,233.313 122.5,230.5C 122.123,228.742 121.456,227.075 120.5,225.5C 121.274,224.289 122.107,224.289 123,225.5C 123.617,224.551 123.451,223.718 122.5,223C 123.931,222.535 125.097,221.701 126,220.5C 126.805,223.435 128.305,225.935 130.5,228C 128.053,229.229 127.887,230.729 130,232.5C 131.487,231.747 131.654,230.914 130.5,230C 131.5,229.167 132.5,228.333 133.5,227.5C 130.583,224.732 131.25,223.232 135.5,223C 134.382,221.926 133.382,220.76 132.5,219.5C 131.481,220.687 130.314,221.687 129,222.5C 128.544,221.256 129.044,220.423 130.5,220C 127.639,217.353 128.139,215.52 132,214.5C 135.672,216.707 139.506,218.54 143.5,220C 142.929,221.205 142.262,222.372 141.5,223.5C 139.983,222.089 138.649,222.256 137.5,224C 138.938,224.219 140.271,224.719 141.5,225.5C 140.41,226.609 140.41,227.609 141.5,228.5C 142.567,225.466 143.734,222.466 145,219.5C 148.059,219.906 151.226,220.906 154.5,222.5C 160.202,220.229 164.702,221.562 168,226.5C 168.236,228.764 168.736,230.931 169.5,233C 169.167,233.333 168.833,233.667 168.5,234C 159.859,234.979 151.192,235.646 142.5,236C 140.942,236.21 139.609,236.71 138.5,237.5 Z"/></g>
<g><path style="opacity:1" fill="#9ff8f3" d="M 185.5,220.5 C 186.498,220.344 187.498,220.844 188.5,222C 189.605,225.446 189.605,228.946 188.5,232.5C 186.952,232.821 186.285,233.821 186.5,235.5C 181.5,235.5 176.5,235.5 171.5,235.5C 172.398,234.842 173.398,234.176 174.5,233.5C 172.355,232.318 172.355,230.818 174.5,229C 173.128,227.758 172.128,226.258 171.5,224.5C 170.092,223.757 168.759,222.923 167.5,222C 167.728,221.601 168.062,221.435 168.5,221.5C 174.178,222.373 179.845,222.039 185.5,220.5 Z"/></g>
<g><path style="opacity:1" fill="#4a759f" d="M 34.5,187.5 C 36.0279,198.307 37.0279,209.307 37.5,220.5C 38.041,229.491 38.3744,238.491 38.5,247.5C 37.1905,254.827 32.8571,257.661 25.5,256C 22.9441,254.945 21.2775,253.112 20.5,250.5C 21.1667,250.167 21.8333,249.833 22.5,249.5C 26.0847,249.848 29.418,249.181 32.5,247.5C 34.1042,246.713 34.7709,245.38 34.5,243.5C 35.0333,224.967 35.0333,206.3 34.5,187.5 Z"/></g>
<g><path style="opacity:1" fill="#49f2e2" d="M 28.5,180.5 C 28.4146,189.885 29.0812,199.218 30.5,208.5C 30.4604,210.429 30.1271,212.262 29.5,214C 31.4035,220.882 32.4035,228.049 32.5,235.5C 32.3333,237.5 32.1667,239.5 32,241.5C 31.5581,243.679 30.5581,244.345 29,243.5C 28.5172,244.448 28.3505,245.448 28.5,246.5C 26.7988,246.034 25.2988,246.034 24,246.5C 24.2763,235.856 24.4429,225.189 24.5,214.5C 25.0009,204.485 25.6676,194.485 26.5,184.5C 27.1667,183.167 27.8333,181.833 28.5,180.5 Z"/></g>
<g><path style="opacity:1" fill="#59e9ee" d="M 304.5,185.5 C 304.177,192.022 304.51,198.355 305.5,204.5C 305.175,212.019 305.508,219.352 306.5,226.5C 306.666,233.175 306.5,239.842 306,246.5C 303.239,249.533 300.073,250.2 296.5,248.5C 301.151,249.186 303.817,247.186 304.5,242.5C 304.08,225.648 303.414,208.648 302.5,191.5C 303.167,189.5 303.833,187.5 304.5,185.5 Z"/></g>
<g><path style="opacity:1" fill="#64bcc3" d="M 171.5,235.5 C 176.5,235.5 181.5,235.5 186.5,235.5C 189.167,235.5 191.833,235.5 194.5,235.5C 179.502,236.529 164.502,237.529 149.5,238.5C 143.642,238.822 137.975,238.489 132.5,237.5C 134.5,237.5 136.5,237.5 138.5,237.5C 149.521,237.043 160.521,236.376 171.5,235.5 Z"/></g>
<g><path style="opacity:1" fill="#324662" d="M 37.5,220.5 C 39.4392,229.46 39.7725,238.46 38.5,247.5C 38.3744,238.491 38.041,229.491 37.5,220.5 Z"/></g>
<g><path style="opacity:1" fill="#55829f" d="M 215.5,224.5 C 210.795,229.207 205.795,233.54 200.5,237.5C 183.577,238.485 166.577,238.818 149.5,238.5C 164.502,237.529 179.502,236.529 194.5,235.5C 201.973,232.598 208.973,228.931 215.5,224.5 Z"/></g>
<g><path style="opacity:1" fill="#41b3c7" d="M 33.5,222.5 C 34.4912,229.313 34.8245,236.313 34.5,243.5C 34.7709,245.38 34.1042,246.713 32.5,247.5C 33.4396,239.221 33.7729,230.888 33.5,222.5 Z"/></g>
<g><path style="opacity:1" fill="#4d679c" d="M 265.5,117.5 C 268.469,126.463 271.136,135.63 273.5,145C 267.876,165.444 262.376,185.944 257,206.5C 239.593,221.442 221.76,235.775 203.5,249.5C 178.759,249.823 154.092,249.49 129.5,248.5C 130.123,246.289 131.123,244.289 132.5,242.5C 155.176,242.833 177.843,242.5 200.5,241.5C 201.243,240.818 201.909,240.151 202.5,239.5C 218.413,227.761 233.913,215.427 249,202.5C 253.369,188.434 257.535,174.434 261.5,160.5C 260.819,165.892 259.819,171.226 258.5,176.5C 258.709,177.086 259.043,177.586 259.5,178C 257.408,184.273 255.408,190.606 253.5,197C 253.735,197.873 254.069,198.707 254.5,199.5C 253.248,201.001 252.248,202.668 251.5,204.5C 250.726,205.711 249.893,205.711 249,204.5C 248.626,205.416 248.126,206.25 247.5,207C 250.788,209.51 253.621,208.677 256,204.5C 257.209,199.452 258.542,194.452 260,189.5C 260.728,186.77 260.562,184.103 259.5,181.5C 259.846,180.304 260.346,180.304 261,181.5C 261.595,180.101 261.428,178.768 260.5,177.5C 261.313,176.186 262.313,175.019 263.5,174C 263.335,172.883 263.002,171.716 262.5,170.5C 263.23,167.891 263.73,165.224 264,162.5C 264.414,162.957 264.914,163.291 265.5,163.5C 270.487,155.052 271.987,146.052 270,136.5C 266.572,134.774 265.738,132.274 267.5,129C 266.515,125.215 265.849,121.382 265.5,117.5 Z"/></g>
<g><path style="opacity:1" fill="#486691" d="M 308.5,196.5 C 310.506,213.967 311.339,231.633 311,249.5C 308.575,255.795 304.075,257.962 297.5,256C 295.21,254.223 293.543,252.056 292.5,249.5C 296.446,250.527 300.446,250.694 304.5,250C 306.333,249.5 307.5,248.333 308,246.5C 309.778,234 309.611,221.334 307.5,208.5C 308.164,204.524 308.497,200.524 308.5,196.5 Z"/></g>
<g><path style="opacity:1" fill="#43557b" d="M 129.5,248.5 C 154.092,249.49 178.759,249.823 203.5,249.5C 178.167,250.833 152.833,250.833 127.5,249.5C 128.492,249.672 129.158,249.338 129.5,248.5 Z"/></g>
<g><path style="opacity:1" fill="#3a7ea2" d="M 307.5,189.5 C 308.369,191.717 308.702,194.05 308.5,196.5C 308.497,200.524 308.164,204.524 307.5,208.5C 309.611,221.334 309.778,234 308,246.5C 307.5,248.333 306.333,249.5 304.5,250C 300.446,250.694 296.446,250.527 292.5,249.5C 292.5,249.167 292.5,248.833 292.5,248.5C 293.167,248.5 293.833,248.5 294.5,248.5C 295.167,248.5 295.833,248.5 296.5,248.5C 300.073,250.2 303.239,249.533 306,246.5C 306.5,239.842 306.666,233.175 306.5,226.5C 306.171,213.989 306.505,201.655 307.5,189.5 Z"/></g>
<g><path style="opacity:1" fill="#0b0c19" d="M 292.5,263.5 C 292.897,262.475 293.563,262.308 294.5,263C 293.906,263.464 293.239,263.631 292.5,263.5 Z"/></g>
</svg>
