<?xml version="1.0" encoding="UTF-8"?>
<!DOCTYPE svg PUBLIC "-//W3C//DTD SVG 1.1//EN" "http://www.w3.org/Graphics/SVG/1.1/DTD/svg11.dtd">
<svg xmlns="http://www.w3.org/2000/svg" version="1.1" width="283px" height="310px" style="shape-rendering:geometricPrecision; text-rendering:geometricPrecision; image-rendering:optimizeQuality; fill-rule:evenodd; clip-rule:evenodd" xmlns:xlink="http://www.w3.org/1999/xlink">
<g><path style="opacity:1" fill="#060d0e" d="M 144.5,9.5 C 145.93,10.5375 147.597,11.2041 149.5,11.5C 159.811,18.7815 165.478,28.7815 166.5,41.5C 166.5,58.5 166.5,75.5 166.5,92.5C 168.099,92.7678 169.432,92.4345 170.5,91.5C 170.5,74.1667 170.5,56.8333 170.5,39.5C 171.404,40.209 171.737,41.209 171.5,42.5C 171.138,56.2076 171.638,69.8742 173,83.5C 173.232,82.2625 173.732,81.2625 174.5,80.5C 174.5,82.8333 174.5,85.1667 174.5,87.5C 173.233,90.0613 173.233,92.728 174.5,95.5C 175.055,99.0122 174.388,102.012 172.5,104.5C 172.325,106.844 171.158,108.511 169,109.5C 164.401,109.667 161.234,107.667 159.5,103.5C 160.393,100.916 160.726,98.2492 160.5,95.5C 160.833,94.8333 161.167,94.1667 161.5,93.5C 162.486,89.03 162.819,84.3633 162.5,79.5C 144.659,79.1699 126.992,79.5033 109.5,80.5C 108.167,85.1667 108.167,89.8333 109.5,94.5C 112.961,100.893 111.961,106.393 106.5,111C 94.861,112.184 90.5277,107.018 93.5,95.5C 94.5,94.8333 95.5,94.1667 96.5,93.5C 98.083,93.5662 99.7497,93.2328 101.5,92.5C 102.833,92.5 104.167,92.5 105.5,92.5C 105.5,75.8333 105.5,59.1667 105.5,42.5C 105.5,41.1667 105.5,39.8333 105.5,38.5C 107.368,32.759 109.701,27.0923 112.5,21.5C 118.904,13.8811 127.07,9.54777 137,8.5C 139.551,8.62486 142.051,8.95819 144.5,9.5 Z M 144.5,16.5 C 151.813,18.9813 156.646,23.9813 159,31.5C 159.794,34.4715 160.461,37.4715 161,40.5C 161.5,51.495 161.667,62.495 161.5,73.5C 150.167,73.5 138.833,73.5 127.5,73.5C 127.126,60.7869 127.626,48.1202 129,35.5C 131.824,27.1832 136.991,20.8498 144.5,16.5 Z M 118.5,24.5 C 116.538,30.0113 115.038,35.6779 114,41.5C 113.5,52.1615 113.333,62.8281 113.5,73.5C 112.167,73.5 110.833,73.5 109.5,73.5C 109.15,62.4514 109.65,51.4514 111,40.5C 111.798,37.1069 112.798,33.7735 114,30.5C 114.792,27.8936 116.292,25.8936 118.5,24.5 Z"/></g>
<g><path style="opacity:1" fill="#06080a" d="M 135.5,-0.5 C 137.167,-0.5 138.833,-0.5 140.5,-0.5C 140.833,0.833333 141.167,0.833333 141.5,-0.5C 141.833,-0.5 142.167,-0.5 142.5,-0.5C 160.315,-1.61579 174.482,5.05087 185,19.5C 187.197,23.5902 188.697,27.9236 189.5,32.5C 188.069,33.7804 187.402,35.4471 187.5,37.5C 184.242,23.1377 175.908,12.971 162.5,7C 160.833,6.33333 159.167,6.33333 157.5,7C 163.09,11.0452 168.59,15.2119 174,19.5C 176.827,23.1554 178.993,27.1554 180.5,31.5C 178.502,31.6618 176.502,30.9951 174.5,29.5C 173.167,30.1667 173.167,30.8333 174.5,31.5C 174.5,33.1667 174.5,34.8333 174.5,36.5C 174.665,39.5184 174.498,42.5184 174,45.5C 173.148,44.4293 172.315,43.4293 171.5,42.5C 171.737,41.209 171.404,40.209 170.5,39.5C 169.083,29.0012 164.749,20.0012 157.5,12.5C 149.862,6.06105 141.196,3.72772 131.5,5.5C 122.659,7.41958 115.659,12.0862 110.5,19.5C 106.227,24.7195 103.56,30.7195 102.5,37.5C 101,41.3258 100.334,45.3258 100.5,49.5C 99.8333,63.006 99.1667,76.6726 98.5,90.5C 97.8328,87.0227 97.1661,83.6893 96.5,80.5C 83.5,80.5 70.5,80.5 57.5,80.5C 54.4726,110.802 51.8059,141.135 49.5,171.5C 48.2627,176.96 47.596,182.627 47.5,188.5C 45.2637,212.456 42.9304,236.456 40.5,260.5C 40.6667,263.167 40.8333,265.833 41,268.5C 42.7804,267.361 44.6137,266.361 46.5,265.5C 47.1667,265.167 47.8333,264.833 48.5,264.5C 50.4147,264.216 52.0813,264.549 53.5,265.5C 44.6864,271.907 35.0198,276.74 24.5,280C 23.3636,281.145 22.3636,282.312 21.5,283.5C 20.7109,283.217 20.0442,282.717 19.5,282C 20.0009,279.938 21.0009,277.771 22.5,275.5C 25.7347,274.227 29.068,272.893 32.5,271.5C 39.3888,206.225 45.8888,140.891 52,75.5C 54.1675,73.5356 56.5008,73.2022 59,74.5C 71.091,73.6772 83.2577,73.1772 95.5,73C 96.1726,60.5445 97.006,48.0445 98,35.5C 101.249,21.7907 108.749,11.2907 120.5,4C 125.482,2.01036 130.482,0.510365 135.5,-0.5 Z"/></g>
<g><path style="opacity:1" fill="#93d9d2" d="M 131.5,5.5 C 141.196,3.72772 149.862,6.06105 157.5,12.5C 155.516,11.8443 153.516,11.1776 151.5,10.5C 150.584,10.5427 149.917,10.8761 149.5,11.5C 147.597,11.2041 145.93,10.5375 144.5,9.5C 145.239,9.63101 145.906,9.46434 146.5,9C 141.984,5.99228 136.984,4.82561 131.5,5.5 Z"/></g>
<g><path style="opacity:1" fill="#c2e9e7" d="M 131.5,5.5 C 136.984,4.82561 141.984,5.99228 146.5,9C 145.906,9.46434 145.239,9.63101 144.5,9.5C 142.051,8.95819 139.551,8.62486 137,8.5C 127.07,9.54777 118.904,13.8811 112.5,21.5C 111.5,21.1667 110.833,20.5 110.5,19.5C 115.659,12.0862 122.659,7.41958 131.5,5.5 Z"/></g>
<g><path style="opacity:1" fill="#96dbd6" d="M 110.5,19.5 C 110.833,20.5 111.5,21.1667 112.5,21.5C 109.701,27.0923 107.368,32.759 105.5,38.5C 105.196,36.2043 104.196,35.871 102.5,37.5C 103.56,30.7195 106.227,24.7195 110.5,19.5 Z"/></g>
<g><path style="opacity:1" fill="#54a1b0" d="M 122.5,39.5 C 121.504,39.4142 120.671,39.7476 120,40.5C 119.814,43.0356 119.314,45.369 118.5,47.5C 118.08,34.1764 122.747,23.0097 132.5,14C 134.259,13.2025 135.926,13.3691 137.5,14.5C 129.708,21.0731 124.708,29.4064 122.5,39.5 Z"/></g>
<g><path style="opacity:1" fill="#030308" d="M 174.5,29.5 C 176.502,30.9951 178.502,31.6618 180.5,31.5C 181.887,33.8766 182.721,36.5432 183,39.5C 183.499,44.8229 183.666,50.1563 183.5,55.5C 183.5,61.8333 183.5,68.1667 183.5,74.5C 185.099,74.7678 186.432,74.4345 187.5,73.5C 187.5,61.5 187.5,49.5 187.5,37.5C 187.402,35.4471 188.069,33.7804 189.5,32.5C 190.925,35.9032 191.758,39.5698 192,43.5C 192.5,53.4944 192.666,63.4944 192.5,73.5C 195.475,73.6931 197.975,72.6931 200,70.5C 203.46,70.908 207.127,70.908 211,70.5C 216.528,69.6922 221.361,71.0255 225.5,74.5C 229.872,74.7579 234.372,74.4246 239,73.5C 240.261,73.7591 241.261,74.4258 242,75.5C 249.293,149.807 256.293,224.14 263,298.5C 263.333,299.167 263.667,299.833 264,300.5C 265,299.167 266,299.167 267,300.5C 267.617,303.176 266.784,303.843 264.5,302.5C 262.164,304.8 259.33,306.133 256,306.5C 252.539,305.782 249.039,305.282 245.5,305C 232.833,304.833 220.167,304.667 207.5,304.5C 192.794,304.606 178.127,305.273 163.5,306.5C 156.376,305.427 149.209,304.761 142,304.5C 98.0217,304.783 54.0217,305.116 10,305.5C 7.85458,305.604 6.02124,304.937 4.5,303.5C 5.52942,303.704 6.52942,303.204 7.5,302C 10.8463,293.468 15.013,284.968 20,276.5C 20.6708,275.748 21.5041,275.414 22.5,275.5C 21.0009,277.771 20.0009,279.938 19.5,282C 20.0442,282.717 20.7109,283.217 21.5,283.5C 21.5,283.833 21.5,284.167 21.5,284.5C 19.5222,288.731 17.5222,293.064 15.5,297.5C 21.8571,298.752 28.1904,298.752 34.5,297.5C 37.1667,296.833 39.8333,296.167 42.5,295.5C 42.2627,296.791 42.596,297.791 43.5,298.5C 96.1667,298.5 148.833,298.5 201.5,298.5C 201.5,296.833 201.5,295.167 201.5,293.5C 202.163,291.958 202.83,290.291 203.5,288.5C 204.169,290.631 204.835,292.631 205.5,294.5C 205.833,294.5 206.167,294.5 206.5,294.5C 207.833,294.5 208.5,295.167 208.5,296.5C 215.636,297.831 223.136,298.497 231,298.5C 238.5,298.167 246,297.833 253.5,297.5C 253.376,296.893 253.043,296.56 252.5,296.5C 253.59,295.143 254.924,294.143 256.5,293.5C 256.5,293.167 256.5,292.833 256.5,292.5C 256.666,285.159 256.5,277.826 256,270.5C 255.256,260.582 253.756,250.916 251.5,241.5C 250.908,238.873 250.575,236.206 250.5,233.5C 250.331,228.819 249.998,224.152 249.5,219.5C 249.208,213.123 248.541,206.79 247.5,200.5C 246.907,191.827 246.24,183.161 245.5,174.5C 245.79,161.76 244.957,149.093 243,136.5C 242.617,135.944 242.117,135.611 241.5,135.5C 240.98,126.488 240.314,117.488 239.5,108.5C 239.505,100.898 238.505,93.5651 236.5,86.5C 236.5,84.5 236.5,82.5 236.5,80.5C 234.167,80.5 231.833,80.5 229.5,80.5C 229.285,106.329 229.119,132.329 229,158.5C 228.768,157.263 228.268,156.263 227.5,155.5C 227.719,130.317 227.052,105.317 225.5,80.5C 224.167,80.5 222.833,80.5 221.5,80.5C 219.579,104.142 217.912,127.809 216.5,151.5C 216.5,152.833 216.5,154.167 216.5,155.5C 215.833,160.5 215.167,165.5 214.5,170.5C 214.5,156.5 214.5,142.5 214.5,128.5C 214.5,125.5 214.5,122.5 214.5,119.5C 214.557,113.149 214.89,106.815 215.5,100.5C 216.468,98.3926 216.802,96.0593 216.5,93.5C 216.662,91.4727 216.495,89.4727 216,87.5C 212.416,94.3389 208.582,101.006 204.5,107.5C 203.624,107.631 202.957,107.298 202.5,106.5C 203.309,104.929 203.643,103.262 203.5,101.5C 207.831,97.8954 210.498,93.2287 211.5,87.5C 212.167,85.8333 212.833,84.1667 213.5,82.5C 214.974,81.5637 215.974,80.2303 216.5,78.5C 214.257,77.1883 211.59,76.5217 208.5,76.5C 205.833,76.6667 203.167,76.8333 200.5,77C 198.267,80.6515 195.934,84.1515 193.5,87.5C 192.699,85.9582 192.366,84.2915 192.5,82.5C 192.5,82.1667 192.5,81.8333 192.5,81.5C 193.043,81.44 193.376,81.1067 193.5,80.5C 187.012,79.1826 180.678,79.1826 174.5,80.5C 173.732,81.2625 173.232,82.2625 173,83.5C 171.638,69.8742 171.138,56.2076 171.5,42.5C 172.315,43.4293 173.148,44.4293 174,45.5C 174.498,42.5184 174.665,39.5184 174.5,36.5C 175.495,48.6554 175.829,60.9887 175.5,73.5C 176.5,73.5 177.5,73.5 178.5,73.5C 178.524,63.3224 178.357,52.9891 178,42.5C 177.584,38.4711 176.417,34.8044 174.5,31.5C 174.5,30.8333 174.5,30.1667 174.5,29.5 Z"/></g>
<g><path style="opacity:1" fill="#60cbc9" d="M 187.5,37.5 C 187.5,49.5 187.5,61.5 187.5,73.5C 186.5,73.5 185.5,73.5 184.5,73.5C 184.823,67.31 184.49,61.31 183.5,55.5C 183.666,50.1563 183.499,44.8229 183,39.5C 182.721,36.5432 181.887,33.8766 180.5,31.5C 178.993,27.1554 176.827,23.1554 174,19.5C 168.59,15.2119 163.09,11.0452 157.5,7C 159.167,6.33333 160.833,6.33333 162.5,7C 175.908,12.971 184.242,23.1377 187.5,37.5 Z"/></g>
<g><path style="opacity:1" fill="#65bec4" d="M 122.5,39.5 C 122.5,40.5 122.5,41.5 122.5,42.5C 121.506,52.6532 121.172,62.9865 121.5,73.5C 120.5,73.5 119.5,73.5 118.5,73.5C 118.5,64.8333 118.5,56.1667 118.5,47.5C 119.314,45.369 119.814,43.0356 120,40.5C 120.671,39.7476 121.504,39.4142 122.5,39.5 Z"/></g>
<g><path style="opacity:1" fill="#46828a" d="M 122.5,42.5 C 122.5,53.1667 122.5,63.8333 122.5,74.5C 120.901,74.7678 119.568,74.4345 118.5,73.5C 119.5,73.5 120.5,73.5 121.5,73.5C 121.172,62.9865 121.506,52.6532 122.5,42.5 Z"/></g>
<g><path style="opacity:1" fill="#306b70" d="M 183.5,55.5 C 184.49,61.31 184.823,67.31 184.5,73.5C 185.5,73.5 186.5,73.5 187.5,73.5C 186.432,74.4345 185.099,74.7678 183.5,74.5C 183.5,68.1667 183.5,61.8333 183.5,55.5 Z"/></g>
<g><path style="opacity:1" fill="#76eae0" d="M 157.5,12.5 C 164.749,20.0012 169.083,29.0012 170.5,39.5C 170.5,56.8333 170.5,74.1667 170.5,91.5C 169.5,91.5 168.5,91.5 167.5,91.5C 167.83,74.6583 167.497,57.9916 166.5,41.5C 165.478,28.7815 159.811,18.7815 149.5,11.5C 149.917,10.8761 150.584,10.5427 151.5,10.5C 153.516,11.1776 155.516,11.8443 157.5,12.5 Z"/></g>
<g><path style="opacity:1" fill="#69c9bf" d="M 166.5,41.5 C 167.497,57.9916 167.83,74.6583 167.5,91.5C 168.5,91.5 169.5,91.5 170.5,91.5C 169.432,92.4345 168.099,92.7678 166.5,92.5C 166.5,75.5 166.5,58.5 166.5,41.5 Z"/></g>
<g><path style="opacity:1" fill="#368077" d="M 105.5,42.5 C 105.5,59.1667 105.5,75.8333 105.5,92.5C 104.167,92.5 102.833,92.5 101.5,92.5C 101.5,92.1667 101.5,91.8333 101.5,91.5C 102.5,91.5 103.5,91.5 104.5,91.5C 104.17,74.9915 104.504,58.6581 105.5,42.5 Z"/></g>
<g><path style="opacity:1" fill="#7ce2db" d="M 105.5,38.5 C 105.5,39.8333 105.5,41.1667 105.5,42.5C 104.504,58.6581 104.17,74.9915 104.5,91.5C 103.5,91.5 102.5,91.5 101.5,91.5C 100.504,77.6766 100.171,63.6766 100.5,49.5C 100.334,45.3258 101,41.3258 102.5,37.5C 104.196,35.871 105.196,36.2043 105.5,38.5 Z"/></g>
<g><path style="opacity:1" fill="#df85e1" d="M 216.5,78.5 C 215.974,80.2303 214.974,81.5637 213.5,82.5C 213.5,81.5 213.5,80.5 213.5,79.5C 210.428,79.1826 207.428,79.5159 204.5,80.5C 201.524,85.8084 198.191,90.8084 194.5,95.5C 196.841,89.6544 199.841,84.1544 203.5,79C 207.821,78.501 212.154,78.3343 216.5,78.5 Z"/></g>
<g><path style="opacity:1" fill="#757f7f" d="M 109.5,80.5 C 126.992,79.5033 144.659,79.1699 162.5,79.5C 162.819,84.3633 162.486,89.03 161.5,93.5C 161.5,92.5 161.5,91.5 161.5,90.5C 161.5,89.8333 161.5,89.1667 161.5,88.5C 161.5,85.8333 161.5,83.1667 161.5,80.5C 144.167,80.5 126.833,80.5 109.5,80.5 Z"/></g>
<g><path style="opacity:1" fill="#747c7d" d="M 174.5,80.5 C 180.678,79.1826 187.012,79.1826 193.5,80.5C 193.376,81.1067 193.043,81.44 192.5,81.5C 186.69,80.5104 180.69,80.1771 174.5,80.5 Z"/></g>
<g><path style="opacity:1" fill="#daf6f6" d="M 109.5,80.5 C 126.833,80.5 144.167,80.5 161.5,80.5C 161.5,83.1667 161.5,85.8333 161.5,88.5C 144.244,87.5146 126.91,87.1813 109.5,87.5C 109.5,89.8333 109.5,92.1667 109.5,94.5C 108.167,89.8333 108.167,85.1667 109.5,80.5 Z"/></g>
<g><path style="opacity:1" fill="#d6f6f4" d="M 174.5,80.5 C 180.69,80.1771 186.69,80.5104 192.5,81.5C 192.5,81.8333 192.5,82.1667 192.5,82.5C 191.18,84.4632 189.846,86.4632 188.5,88.5C 183.619,87.5569 178.952,87.2236 174.5,87.5C 174.5,85.1667 174.5,82.8333 174.5,80.5 Z"/></g>
<g><path style="opacity:1" fill="#041e19" d="M 100.5,49.5 C 100.171,63.6766 100.504,77.6766 101.5,91.5C 101.5,91.8333 101.5,92.1667 101.5,92.5C 99.7497,93.2328 98.083,93.5662 96.5,93.5C 96.5,92.1667 96.5,90.8333 96.5,89.5C 96.5,86.5 96.5,83.5 96.5,80.5C 97.1661,83.6893 97.8328,87.0227 98.5,90.5C 99.1667,76.6726 99.8333,63.006 100.5,49.5 Z"/></g>
<g><path style="opacity:1" fill="#4f6495" d="M 229.5,80.5 C 231.833,80.5 234.167,80.5 236.5,80.5C 236.5,82.5 236.5,84.5 236.5,86.5C 236.585,94.0907 237.585,101.424 239.5,108.5C 240.314,117.488 240.98,126.488 241.5,135.5C 242.39,147.513 243.39,159.513 244.5,171.5C 243.778,171.082 243.278,170.416 243,169.5C 242.359,160.469 241.526,151.469 240.5,142.5C 240.162,136.958 239.495,131.458 238.5,126C 239.301,122.668 238.634,119.502 236.5,116.5C 236.35,113.728 236.683,110.894 237.5,108C 237.204,106.112 236.704,104.278 236,102.5C 234.908,105.044 234.241,107.711 234,110.5C 233.223,107.571 233.39,104.737 234.5,102C 233.773,100.601 233.273,99.1012 233,97.5C 231.561,121.462 231.061,145.462 231.5,169.5C 231.5,173.5 231.5,177.5 231.5,181.5C 230.603,148 229.937,114.333 229.5,80.5 Z"/></g>
<g><path style="opacity:1" fill="#6192a7" d="M 216.5,93.5 C 216.802,96.0593 216.468,98.3926 215.5,100.5C 215.768,98.901 215.434,97.5676 214.5,96.5C 214.427,94.9731 215.094,93.9731 216.5,93.5 Z"/></g>
<g><path style="opacity:1" fill="#59dcd2" d="M 174.5,87.5 C 178.952,87.2236 183.619,87.5569 188.5,88.5C 182.989,98.8672 176.989,108.867 170.5,118.5C 170.261,116.533 170.594,114.699 171.5,113C 168.964,112.814 166.631,112.314 164.5,111.5C 174.453,111.904 178.62,107.237 177,97.5C 176.292,96.6195 175.458,95.9528 174.5,95.5C 173.233,92.728 173.233,90.0613 174.5,87.5 Z"/></g>
<g><path style="opacity:1" fill="#290f28" d="M 211.5,87.5 C 210.498,93.2287 207.831,97.8954 203.5,101.5C 205.65,96.5319 208.317,91.8652 211.5,87.5 Z"/></g>
<g><path style="opacity:1" fill="#091714" d="M 160.5,95.5 C 160.726,98.2492 160.393,100.916 159.5,103.5C 161.234,107.667 164.401,109.667 169,109.5C 171.158,108.511 172.325,106.844 172.5,104.5C 174.388,102.012 175.055,99.0122 174.5,95.5C 175.458,95.9528 176.292,96.6195 177,97.5C 178.62,107.237 174.453,111.904 164.5,111.5C 161.44,110.086 159.274,107.753 158,104.5C 156.93,100.858 157.764,97.8579 160.5,95.5 Z"/></g>
<g><path style="opacity:1" fill="#c6c6db" d="M 167.5,95.5 C 166.258,97.2501 164.758,98.9168 163,100.5C 162.601,100.272 162.435,99.9382 162.5,99.5C 162.967,96.7026 164.633,95.3692 167.5,95.5 Z"/></g>
<g><path style="opacity:1" fill="#2e3e62" d="M 236.5,86.5 C 238.505,93.5651 239.505,100.898 239.5,108.5C 237.585,101.424 236.585,94.0907 236.5,86.5 Z"/></g>
<g><path style="opacity:1" fill="#4d6aa8" d="M 240.5,142.5 C 238.261,137.444 236.594,132.111 235.5,126.5C 234.5,126.5 233.5,126.5 232.5,126.5C 232.897,140.804 232.897,155.137 232.5,169.5C 232.167,169.5 231.833,169.5 231.5,169.5C 231.061,145.462 231.561,121.462 233,97.5C 233.273,99.1012 233.773,100.601 234.5,102C 233.39,104.737 233.223,107.571 234,110.5C 234.241,107.711 234.908,105.044 236,102.5C 236.704,104.278 237.204,106.112 237.5,108C 236.683,110.894 236.35,113.728 236.5,116.5C 238.634,119.502 239.301,122.668 238.5,126C 239.495,131.458 240.162,136.958 240.5,142.5 Z"/></g>
<g><path style="opacity:1" fill="#4e59a2" d="M 167.5,95.5 C 172.301,96.9286 173.967,99.9286 172.5,104.5C 168.492,108.795 164.992,108.461 162,103.5C 161.235,101.934 161.402,100.601 162.5,99.5C 162.435,99.9382 162.601,100.272 163,100.5C 164.758,98.9168 166.258,97.2501 167.5,95.5 Z"/></g>
<g><path style="opacity:1" fill="#e084df" d="M 191.5,100.5 C 190.83,103.673 189.664,106.673 188,109.5C 187.329,110.252 186.496,110.586 185.5,110.5C 187,106.827 189,103.494 191.5,100.5 Z"/></g>
<g><path style="opacity:1" fill="#51ede0" d="M 161.5,88.5 C 161.5,89.1667 161.5,89.8333 161.5,90.5C 154.776,90.8623 148.61,90.8623 143,90.5C 142.333,93.1667 141.667,93.1667 141,90.5C 131.246,90.7693 121.412,90.9359 111.5,91C 112,91.5 112.5,92 113,92.5C 115.577,91.8991 118.243,91.5658 121,91.5C 123.159,94.0596 125.326,94.0596 127.5,91.5C 128.604,92.6313 128.271,93.4646 126.5,94C 131.525,93.0832 136.525,93.4165 141.5,95C 136.749,95.1887 132.083,95.8553 127.5,97C 128.308,97.3076 128.975,97.8076 129.5,98.5C 128.164,100.24 126.83,101.907 125.5,103.5C 124.749,102.624 124.249,101.624 124,100.5C 122.764,102.307 122.43,104.307 123,106.5C 119.877,100.514 118.544,100.514 119,106.5C 119.465,107.931 120.299,109.097 121.5,110C 124.146,110.497 126.813,110.664 129.5,110.5C 129.5,115.833 129.5,121.167 129.5,126.5C 128.167,126.5 126.833,126.5 125.5,126.5C 125.083,129.079 125.75,131.246 127.5,133C 125.709,135.106 125.042,137.606 125.5,140.5C 129.166,140.512 132.499,140.845 135.5,141.5C 132.373,141.98 129.54,142.98 127,144.5C 126.667,143.833 126.333,143.167 126,142.5C 125.505,144.473 125.338,146.473 125.5,148.5C 130.432,147.623 135.266,146.289 140,144.5C 146.181,144.316 146.847,145.983 142,149.5C 140.938,148.903 139.772,148.57 138.5,148.5C 135.402,150.381 132.068,151.714 128.5,152.5C 125.822,151.825 123.156,151.158 120.5,150.5C 120.5,152.167 120.5,153.833 120.5,155.5C 119.5,155.5 118.5,155.5 117.5,155.5C 117.5,154.5 117.5,153.5 117.5,152.5C 116.448,152.351 115.448,152.517 114.5,153C 113.624,155.376 111.958,156.876 109.5,157.5C 112.768,158.487 116.102,158.82 119.5,158.5C 119.351,161.607 119.851,164.607 121,167.5C 124.33,171.113 125.33,175.113 124,179.5C 122.732,179.384 121.398,179.051 120,178.5C 119.966,180.18 119.799,181.68 119.5,183C 120.155,184.487 121.155,185.653 122.5,186.5C 123.265,185.388 124.265,184.721 125.5,184.5C 114.641,200.363 102.308,215.03 88.5,228.5C 86.3867,229.256 84.3867,229.423 82.5,229C 81.6476,231.362 80.1476,233.195 78,234.5C 77.4897,231.995 75.9897,230.495 73.5,230C 70.8428,229.825 68.1761,229.992 65.5,230.5C 65.5,228.167 65.5,225.833 65.5,223.5C 69.1352,224.114 72.8019,224.448 76.5,224.5C 76.7721,228.814 78.1055,229.314 80.5,226C 79.8742,225.25 79.3742,224.416 79,223.5C 78.6667,223.833 78.3333,224.167 78,224.5C 76.9326,223.809 75.7659,223.309 74.5,223C 75.5,222.667 76.5,222.333 77.5,222C 75.3348,220.436 73.6681,220.603 72.5,222.5C 71.8333,221.833 71.1667,221.167 70.5,220.5C 68.9579,221.747 67.4579,221.747 66,220.5C 62.9246,221.314 61.2579,223.314 61,226.5C 60.7398,224.382 59.7398,222.716 58,221.5C 57.6667,222.167 57.3333,222.833 57,223.5C 55.0402,220.116 54.2069,216.45 54.5,212.5C 54.8346,207.828 55.1679,203.161 55.5,198.5C 57.1537,200.56 58.1537,203.06 58.5,206C 57.9936,210.328 57.8269,214.828 58,219.5C 60.606,217.396 61.2727,215.062 60,212.5C 59.3333,210.167 59.3333,207.833 60,205.5C 60.3333,206.833 60.6667,208.167 61,209.5C 61.3333,208.833 61.6667,208.167 62,207.5C 62.2492,208.624 62.7492,209.624 63.5,210.5C 65.1303,209.102 66.9637,208.102 69,207.5C 74.3163,208.421 79.483,209.755 84.5,211.5C 88.4232,210.894 92.2565,209.894 96,208.5C 98.1704,208.672 99.8371,209.672 101,211.5C 101.5,211.333 102,211.167 102.5,211C 101.426,210.261 100.759,209.261 100.5,208C 101.244,205.845 102.244,203.845 103.5,202C 102.206,201.894 101.539,200.894 101.5,199C 101.755,197.674 102.422,196.674 103.5,196C 103.167,195.667 102.833,195.333 102.5,195C 103.744,194.544 104.577,195.044 105,196.5C 106.364,195.742 107.531,196.242 108.5,198C 106.008,199.249 106.175,200.416 109,201.5C 109.98,200.019 111.147,198.685 112.5,197.5C 113.452,195.955 113.785,194.288 113.5,192.5C 112.127,192.657 110.793,192.49 109.5,192C 110.167,191.667 110.833,191.333 111.5,191C 111.556,186.599 110.889,182.099 109.5,177.5C 112.329,177.325 113.996,178.658 114.5,181.5C 115.642,179.197 116.975,177.03 118.5,175C 118.333,174.5 118.167,174 118,173.5C 117.411,175.863 115.911,176.863 113.5,176.5C 113.62,173.795 112.62,173.128 110.5,174.5C 109.571,173.311 109.238,171.978 109.5,170.5C 106.572,170.852 103.738,171.518 101,172.5C 100.695,170.443 100.695,168.443 101,166.5C 99.7949,167.071 98.6283,167.738 97.5,168.5C 98.6405,169.425 98.6405,170.259 97.5,171C 100.654,172.748 101.321,175.248 99.5,178.5C 97.5,178.5 95.5,178.5 93.5,178.5C 93.0889,175.724 93.9223,175.057 96,176.5C 97.7215,176.389 97.8882,175.889 96.5,175C 92.5,174.667 88.5,174.333 84.5,174C 87.2784,172.608 90.2784,172.108 93.5,172.5C 93.5,168.5 93.5,164.5 93.5,160.5C 91.076,160.808 88.7427,160.474 86.5,159.5C 86.9867,158.554 87.3201,157.554 87.5,156.5C 86.3521,154.373 85.3521,152.206 84.5,150C 84.8333,149.667 85.1667,149.333 85.5,149C 84.1667,148.333 82.8333,147.667 81.5,147C 82.8333,146.333 84.1667,145.667 85.5,145C 82.4863,144.196 79.6529,143.029 77,141.5C 76.0033,138.199 75.6699,134.866 76,131.5C 77.016,130.366 77.6827,130.699 78,132.5C 78.9025,131.299 80.0692,130.465 81.5,130C 81.1667,129.667 80.8333,129.333 80.5,129C 81.5,128.667 82.5,128.333 83.5,128C 83.1667,127.667 82.8333,127.333 82.5,127C 88.8926,127.528 89.5592,126.028 84.5,122.5C 81.3931,123.747 78.5598,125.414 76,127.5C 74.6054,126.185 73.6054,126.519 73,128.5C 72.6667,127.833 72.3333,127.167 72,126.5C 71.7744,129.095 71.2744,131.595 70.5,134C 71.3081,134.308 71.9747,134.808 72.5,135.5C 70.3089,137.208 69.9756,139.208 71.5,141.5C 69.3635,142.472 68.1968,144.139 68,146.5C 67.6667,145.5 67.3333,144.5 67,143.5C 66.1696,148.143 65.5029,152.81 65,157.5C 64.7744,154.905 64.2744,152.405 63.5,150C 65.2112,148.867 65.7112,147.367 65,145.5C 64.3333,148.167 63.6667,148.167 63,145.5C 62.5017,148.817 62.335,152.15 62.5,155.5C 61.5,155.5 60.5,155.5 59.5,155.5C 58.8575,164.846 58.8575,174.012 59.5,183C 58.3636,184.145 57.3636,185.312 56.5,186.5C 57.1942,181.195 57.5276,175.862 57.5,170.5C 57.2945,163.604 57.9611,156.937 59.5,150.5C 60.3712,146.979 61.2045,143.312 62,139.5C 63.6147,122.785 65.1147,106.118 66.5,89.5C 75.9153,89.4613 85.2487,89.4613 94.5,89.5C 94.1667,91.5 93.8333,93.5 93.5,95.5C 90.5277,107.018 94.861,112.184 106.5,111C 111.961,106.393 112.961,100.893 109.5,94.5C 109.5,92.1667 109.5,89.8333 109.5,87.5C 126.91,87.1813 144.244,87.5146 161.5,88.5 Z"/></g>
<g><path style="opacity:1" fill="#50f2e0" d="M 112.5,107.5 C 113.573,108.658 114.739,108.658 116,107.5C 118.64,108.86 118.807,110.193 116.5,111.5C 117.117,116.142 117.451,121.142 117.5,126.5C 118.833,126.5 120.167,126.5 121.5,126.5C 121.808,128.924 121.474,131.257 120.5,133.5C 117.334,133.834 114,133.834 110.5,133.5C 110.167,135 109.833,136.5 109.5,138C 109.629,139.981 110.296,141.647 111.5,143C 110.692,143.308 110.025,143.808 109.5,144.5C 111.108,145.318 112.775,145.985 114.5,146.5C 115.998,149.133 115.165,150.466 112,150.5C 108.846,150.508 108.679,149.842 111.5,148.5C 110.609,147.41 109.609,147.41 108.5,148.5C 106.812,151.304 105.645,154.304 105,157.5C 104,158.167 103,158.833 102,159.5C 97.0597,154.953 94.2264,149.286 93.5,142.5C 90.1016,142.82 86.7683,142.487 83.5,141.5C 84.7515,139.999 85.7515,138.332 86.5,136.5C 88.5,135.167 90.5,133.833 92.5,132.5C 93.7691,130.305 93.7691,128.139 92.5,126C 96.0088,125.664 98.8421,124.164 101,121.5C 101.333,122.167 101.667,122.833 102,123.5C 104.106,121.709 106.606,121.042 109.5,121.5C 109.539,119.641 108.706,118.308 107,117.5C 105.992,117.982 104.825,118.148 103.5,118C 103.957,118.414 104.291,118.914 104.5,119.5C 102.016,120.861 99.6832,120.694 97.5,119C 98.6291,116.832 100.129,116.332 102,117.5C 103.947,116.89 105.781,116.057 107.5,115C 106.5,114.667 105.5,114.333 104.5,114C 107.69,112.294 110.357,110.127 112.5,107.5 Z"/></g>
<g><path style="opacity:1" fill="#50599c" d="M 99.5,96.5 C 105.736,95.24 108.236,97.9066 107,104.5C 102.837,108.747 99.1705,108.414 96,103.5C 95.235,101.934 95.4017,100.601 96.5,99.5C 96.369,100.239 96.5357,100.906 97,101.5C 97.9476,99.4299 99.4476,97.9299 101.5,97C 100.906,96.5357 100.239,96.369 99.5,96.5 Z"/></g>
<g><path style="opacity:1" fill="#cbd3e7" d="M 99.5,96.5 C 100.239,96.369 100.906,96.5357 101.5,97C 99.4476,97.9299 97.9476,99.4299 97,101.5C 96.5357,100.906 96.369,100.239 96.5,99.5C 96.8564,97.8102 97.8564,96.8102 99.5,96.5 Z"/></g>
<g><path style="opacity:1" fill="#0f1732" d="M 225.5,80.5 C 227.052,105.317 227.719,130.317 227.5,155.5C 227.5,157.5 227.5,159.5 227.5,161.5C 226.833,147.5 226.167,133.5 225.5,119.5C 225.5,117.5 225.5,115.5 225.5,113.5C 225.5,102.5 225.5,91.5 225.5,80.5 Z"/></g>
<g><path style="opacity:1" fill="#4feedf" d="M 161.5,90.5 C 161.5,91.5 161.5,92.5 161.5,93.5C 161.167,94.1667 160.833,94.8333 160.5,95.5C 157.764,97.8579 156.93,100.858 158,104.5C 159.274,107.753 161.44,110.086 164.5,111.5C 166.631,112.314 168.964,112.814 171.5,113C 170.594,114.699 170.261,116.533 170.5,118.5C 156.971,141.577 141.971,163.577 125.5,184.5C 124.265,184.721 123.265,185.388 122.5,186.5C 121.155,185.653 120.155,184.487 119.5,183C 119.799,181.68 119.966,180.18 120,178.5C 121.398,179.051 122.732,179.384 124,179.5C 125.33,175.113 124.33,171.113 121,167.5C 119.851,164.607 119.351,161.607 119.5,158.5C 116.102,158.82 112.768,158.487 109.5,157.5C 111.958,156.876 113.624,155.376 114.5,153C 115.448,152.517 116.448,152.351 117.5,152.5C 117.5,153.5 117.5,154.5 117.5,155.5C 118.5,155.5 119.5,155.5 120.5,155.5C 120.5,153.833 120.5,152.167 120.5,150.5C 123.156,151.158 125.822,151.825 128.5,152.5C 132.068,151.714 135.402,150.381 138.5,148.5C 139.772,148.57 140.938,148.903 142,149.5C 146.847,145.983 146.181,144.316 140,144.5C 135.266,146.289 130.432,147.623 125.5,148.5C 125.338,146.473 125.505,144.473 126,142.5C 126.333,143.167 126.667,143.833 127,144.5C 129.54,142.98 132.373,141.98 135.5,141.5C 132.499,140.845 129.166,140.512 125.5,140.5C 125.042,137.606 125.709,135.106 127.5,133C 125.75,131.246 125.083,129.079 125.5,126.5C 126.833,126.5 128.167,126.5 129.5,126.5C 129.5,121.167 129.5,115.833 129.5,110.5C 126.813,110.664 124.146,110.497 121.5,110C 120.299,109.097 119.465,107.931 119,106.5C 118.544,100.514 119.877,100.514 123,106.5C 122.43,104.307 122.764,102.307 124,100.5C 124.249,101.624 124.749,102.624 125.5,103.5C 126.83,101.907 128.164,100.24 129.5,98.5C 128.975,97.8076 128.308,97.3076 127.5,97C 132.083,95.8553 136.749,95.1887 141.5,95C 136.525,93.4165 131.525,93.0832 126.5,94C 128.271,93.4646 128.604,92.6313 127.5,91.5C 125.326,94.0596 123.159,94.0596 121,91.5C 118.243,91.5658 115.577,91.8991 113,92.5C 112.5,92 112,91.5 111.5,91C 121.412,90.9359 131.246,90.7693 141,90.5C 141.667,93.1667 142.333,93.1667 143,90.5C 148.61,90.8623 154.776,90.8623 161.5,90.5 Z"/></g>
<g><path style="opacity:1" fill="#efe7f2" d="M 216.5,78.5 C 212.154,78.3343 207.821,78.501 203.5,79C 199.841,84.1544 196.841,89.6544 194.5,95.5C 192.75,96.6594 191.75,98.326 191.5,100.5C 189,103.494 187,106.827 185.5,110.5C 182.586,114.658 179.919,118.991 177.5,123.5C 174.836,125.484 173.169,128.151 172.5,131.5C 170.75,132.659 169.75,134.326 169.5,136.5C 164.863,142.653 160.363,148.986 156,155.5C 154.239,158.411 152.739,161.411 151.5,164.5C 150.167,164.5 149.5,165.167 149.5,166.5C 145.927,170.644 142.594,174.978 139.5,179.5C 135.679,183.806 132.345,188.473 129.5,193.5C 124.863,199.142 120.197,204.809 115.5,210.5C 112.46,213.539 109.794,216.873 107.5,220.5C 104.473,222.86 101.806,225.527 99.5,228.5C 99.7373,227.209 99.404,226.209 98.5,225.5C 134.62,182.602 166.287,136.602 193.5,87.5C 195.934,84.1515 198.267,80.6515 200.5,77C 203.167,76.8333 205.833,76.6667 208.5,76.5C 211.59,76.5217 214.257,77.1883 216.5,78.5 Z"/></g>
<g><path style="opacity:1" fill="#cd67c8" d="M 197.5,110.5 C 194.906,116.701 191.573,122.368 187.5,127.5C 188.642,124.62 189.642,121.62 190.5,118.5C 192.491,115.461 194.824,112.794 197.5,110.5 Z"/></g>
<g><path style="opacity:1" fill="#6be6dc" d="M 96.5,89.5 C 96.5,90.8333 96.5,92.1667 96.5,93.5C 95.5,94.1667 94.5,94.8333 93.5,95.5C 93.8333,93.5 94.1667,91.5 94.5,89.5C 85.2487,89.4613 75.9153,89.4613 66.5,89.5C 65.1147,106.118 63.6147,122.785 62,139.5C 61.2045,143.312 60.3712,146.979 59.5,150.5C 59.9455,137.821 60.6122,125.154 61.5,112.5C 63.057,104.372 64.057,96.0387 64.5,87.5C 74.5056,87.3335 84.5056,87.5002 94.5,88C 95.0442,88.7172 95.7109,89.2172 96.5,89.5 Z"/></g>
<g><path style="opacity:1" fill="#d8f1f2" d="M 96.5,80.5 C 96.5,83.5 96.5,86.5 96.5,89.5C 95.7109,89.2172 95.0442,88.7172 94.5,88C 84.5056,87.5002 74.5056,87.3335 64.5,87.5C 64.057,96.0387 63.057,104.372 61.5,112.5C 60.0735,114.148 59.2401,116.148 59,118.5C 58.2478,132.587 57.2478,146.254 56,159.5C 53.9432,161.234 53.4432,163.234 54.5,165.5C 53.8728,168.702 53.2061,171.869 52.5,175C 52.8333,175.333 53.1667,175.667 53.5,176C 52.3206,188.082 51.6539,200.249 51.5,212.5C 51.4927,221.223 50.8261,229.889 49.5,238.5C 49.0926,247.575 48.0926,256.575 46.5,265.5C 44.6137,266.361 42.7804,267.361 41,268.5C 40.8333,265.833 40.6667,263.167 40.5,260.5C 42.9304,236.456 45.2637,212.456 47.5,188.5C 49.0121,183.071 49.6787,177.404 49.5,171.5C 51.8059,141.135 54.4726,110.802 57.5,80.5C 70.5,80.5 83.5,80.5 96.5,80.5 Z"/></g>
<g><path style="opacity:1" fill="#4969a6" d="M 225.5,113.5 C 225.5,115.5 225.5,117.5 225.5,119.5C 224.629,146.826 225.296,174.159 227.5,201.5C 227.5,213.833 227.5,226.167 227.5,238.5C 227.167,238.5 226.833,238.5 226.5,238.5C 226.915,226.438 226.415,214.438 225,202.5C 224.667,204.167 224.333,205.833 224,207.5C 223.418,204.332 222.418,203.999 221,206.5C 219.956,205.377 219.29,204.044 219,202.5C 218.259,203.641 217.425,203.641 216.5,202.5C 215.479,203.901 214.479,205.235 213.5,206.5C 214.419,198.862 215.419,191.195 216.5,183.5C 216.312,174.236 216.312,164.903 216.5,155.5C 216.5,154.167 216.5,152.833 216.5,151.5C 217.715,147.325 219.048,143.159 220.5,139C 220.043,138.586 219.709,138.086 219.5,137.5C 220.142,132.635 220.808,127.801 221.5,123C 220.822,120.658 221.155,118.324 222.5,116C 222.72,113.071 222.386,110.071 221.5,107C 222.061,98.4952 222.728,89.9952 223.5,81.5C 224.805,90.5296 224.805,99.5296 223.5,108.5C 224.028,110.336 224.694,112.003 225.5,113.5 Z"/></g>
<g><path style="opacity:1" fill="#4e6698" d="M 225.5,80.5 C 225.5,91.5 225.5,102.5 225.5,113.5C 224.694,112.003 224.028,110.336 223.5,108.5C 224.805,99.5296 224.805,90.5296 223.5,81.5C 222.728,89.9952 222.061,98.4952 221.5,107C 222.386,110.071 222.72,113.071 222.5,116C 221.155,118.324 220.822,120.658 221.5,123C 220.808,127.801 220.142,132.635 219.5,137.5C 219.709,138.086 220.043,138.586 220.5,139C 219.048,143.159 217.715,147.325 216.5,151.5C 217.912,127.809 219.579,104.142 221.5,80.5C 222.833,80.5 224.167,80.5 225.5,80.5 Z"/></g>
<g><path style="opacity:1" fill="#e17fdc" d="M 177.5,123.5 C 177.288,127.208 175.622,129.874 172.5,131.5C 173.169,128.151 174.836,125.484 177.5,123.5 Z"/></g>
<g><path style="opacity:1" fill="#52ece0" d="M 214.5,96.5 C 215.434,97.5676 215.768,98.901 215.5,100.5C 214.89,106.815 214.557,113.149 214.5,119.5C 213.883,119.611 213.383,119.944 213,120.5C 212.285,135.227 210.952,149.893 209,164.5C 208.975,162.102 208.141,159.769 206.5,157.5C 205.914,157.709 205.414,158.043 205,158.5C 203.981,157.313 202.814,156.313 201.5,155.5C 198.833,155.833 196.167,156.167 193.5,156.5C 192.833,155.833 192.167,155.167 191.5,154.5C 190.15,155.95 188.484,156.617 186.5,156.5C 186.047,153.348 187.047,150.848 189.5,149C 187.916,146.175 188.582,144.008 191.5,142.5C 192.104,137.486 194.604,133.82 199,131.5C 200.547,127.096 202.047,122.763 203.5,118.5C 207.137,111.183 210.804,103.85 214.5,96.5 Z"/></g>
<g><path style="opacity:1" fill="#dc70da" d="M 187.5,127.5 C 185.316,131.881 182.65,135.881 179.5,139.5C 179.709,133.72 182.376,129.72 187.5,127.5 Z"/></g>
<g><path style="opacity:1" fill="#110415" d="M 203.5,101.5 C 203.643,103.262 203.309,104.929 202.5,106.5C 202.957,107.298 203.624,107.631 204.5,107.5C 196.665,120.505 188.831,133.505 181,146.5C 173.636,157.919 165.803,168.919 157.5,179.5C 157.565,179.062 157.399,178.728 157,178.5C 155.887,179.305 154.721,179.972 153.5,180.5C 153.5,180.167 153.5,179.833 153.5,179.5C 155.5,176.5 157.5,173.5 159.5,170.5C 162.241,168.025 164.241,165.025 165.5,161.5C 166.167,161.5 166.5,161.167 166.5,160.5C 169.486,155.87 172.486,151.203 175.5,146.5C 177.098,144.302 178.431,141.969 179.5,139.5C 182.65,135.881 185.316,131.881 187.5,127.5C 191.573,122.368 194.906,116.701 197.5,110.5C 199.748,107.672 201.748,104.672 203.5,101.5 Z"/></g>
<g><path style="opacity:1" fill="#e690e2" d="M 172.5,131.5 C 172.25,133.674 171.25,135.341 169.5,136.5C 169.75,134.326 170.75,132.659 172.5,131.5 Z"/></g>
<g><path style="opacity:1" fill="#e278de" d="M 169.5,136.5 C 168.94,138.801 168.44,141.134 168,143.5C 162.494,150.52 156.994,157.52 151.5,164.5C 152.739,161.411 154.239,158.411 156,155.5C 160.363,148.986 164.863,142.653 169.5,136.5 Z"/></g>
<g><path style="opacity:1" fill="#566aaf" d="M 240.5,142.5 C 241.526,151.469 242.359,160.469 243,169.5C 243.278,170.416 243.778,171.082 244.5,171.5C 244.5,172.5 244.5,173.5 244.5,174.5C 244.5,175.5 244.5,176.5 244.5,177.5C 241.92,175.911 240.587,173.578 240.5,170.5C 239.5,170.5 238.5,170.5 237.5,170.5C 237.5,171.5 237.5,172.5 237.5,173.5C 235.856,173.286 234.356,173.62 233,174.5C 232.506,172.866 232.34,171.199 232.5,169.5C 232.897,155.137 232.897,140.804 232.5,126.5C 233.5,126.5 234.5,126.5 235.5,126.5C 236.594,132.111 238.261,137.444 240.5,142.5 Z"/></g>
<g><path style="opacity:1" fill="#caf9f9" d="M 61.5,112.5 C 60.6122,125.154 59.9455,137.821 59.5,150.5C 57.9611,156.937 57.2945,163.604 57.5,170.5C 55.3678,184.471 53.3678,198.471 51.5,212.5C 51.6539,200.249 52.3206,188.082 53.5,176C 53.1667,175.667 52.8333,175.333 52.5,175C 53.2061,171.869 53.8728,168.702 54.5,165.5C 53.4432,163.234 53.9432,161.234 56,159.5C 57.2478,146.254 58.2478,132.587 59,118.5C 59.2401,116.148 60.0735,114.148 61.5,112.5 Z"/></g>
<g><path style="opacity:1" fill="#4a6091" d="M 225.5,119.5 C 226.167,133.5 226.833,147.5 227.5,161.5C 227.5,174.833 227.5,188.167 227.5,201.5C 225.296,174.159 224.629,146.826 225.5,119.5 Z"/></g>
<g><path style="opacity:1" fill="#0e0e1e" d="M 241.5,135.5 C 242.117,135.611 242.617,135.944 243,136.5C 244.957,149.093 245.79,161.76 245.5,174.5C 245.167,174.5 244.833,174.5 244.5,174.5C 244.5,173.5 244.5,172.5 244.5,171.5C 243.39,159.513 242.39,147.513 241.5,135.5 Z"/></g>
<g><path style="opacity:1" fill="#d968d4" d="M 175.5,146.5 C 172.486,151.203 169.486,155.87 166.5,160.5C 168.177,156.625 169.677,152.625 171,148.5C 172.11,146.963 173.61,146.297 175.5,146.5 Z"/></g>
<g><path style="opacity:1" fill="#f162ee" d="M 213.5,82.5 C 212.833,84.1667 212.167,85.8333 211.5,87.5C 208.317,91.8652 205.65,96.5319 203.5,101.5C 201.748,104.672 199.748,107.672 197.5,110.5C 194.824,112.794 192.491,115.461 190.5,118.5C 189.642,121.62 188.642,124.62 187.5,127.5C 182.376,129.72 179.709,133.72 179.5,139.5C 178.431,141.969 177.098,144.302 175.5,146.5C 173.61,146.297 172.11,146.963 171,148.5C 169.677,152.625 168.177,156.625 166.5,160.5C 166.5,161.167 166.167,161.5 165.5,161.5C 164.504,161.414 163.671,161.748 163,162.5C 161.555,165.09 160.388,167.757 159.5,170.5C 157.5,173.5 155.5,176.5 153.5,179.5C 152.5,179.5 151.5,179.5 150.5,179.5C 149.199,181.672 148.199,184.005 147.5,186.5C 146.5,186.5 145.5,186.5 144.5,186.5C 143.833,189.167 143.167,191.833 142.5,194.5C 139.5,194.167 138.167,195.5 138.5,198.5C 137.5,198.5 136.5,198.5 135.5,198.5C 135.762,199.978 135.429,201.311 134.5,202.5C 132.5,203.833 130.833,205.5 129.5,207.5C 128.914,207.291 128.414,206.957 128,206.5C 126.798,208.677 126.298,211.011 126.5,213.5C 123.333,213.4 120.333,214.067 117.5,215.5C 117.167,214.833 116.833,214.167 116.5,213.5C 119.333,210.496 121.666,207.162 123.5,203.5C 125.925,200.411 127.925,197.078 129.5,193.5C 132.49,190.009 135.657,186.676 139,183.5C 139.49,182.207 139.657,180.873 139.5,179.5C 144.03,176.116 147.363,171.783 149.5,166.5C 149.5,165.167 150.167,164.5 151.5,164.5C 156.994,157.52 162.494,150.52 168,143.5C 168.44,141.134 168.94,138.801 169.5,136.5C 171.25,135.341 172.25,133.674 172.5,131.5C 175.622,129.874 177.288,127.208 177.5,123.5C 179.919,118.991 182.586,114.658 185.5,110.5C 186.496,110.586 187.329,110.252 188,109.5C 189.664,106.673 190.83,103.673 191.5,100.5C 191.75,98.326 192.75,96.6594 194.5,95.5C 198.191,90.8084 201.524,85.8084 204.5,80.5C 207.428,79.5159 210.428,79.1826 213.5,79.5C 213.5,80.5 213.5,81.5 213.5,82.5 Z"/></g>
<g><path style="opacity:1" fill="#36497a" d="M 216.5,93.5 C 215.094,93.9731 214.427,94.9731 214.5,96.5C 210.804,103.85 207.137,111.183 203.5,118.5C 199.167,125.167 194.833,131.833 190.5,138.5C 186.638,140.206 184.472,143.206 184,147.5C 183.333,146.167 182.667,146.167 182,147.5C 181.667,149.167 181.333,150.833 181,152.5C 176.415,158.674 172.081,165.008 168,171.5C 166.872,173.345 166.372,175.345 166.5,177.5C 164.822,180.195 163.156,182.861 161.5,185.5C 159.808,187.205 158.475,189.205 157.5,191.5C 156.527,193.139 155.194,194.473 153.5,195.5C 153.954,192.86 155.121,190.527 157,188.5C 157.497,186.19 157.663,183.857 157.5,181.5C 157.5,180.833 157.5,180.167 157.5,179.5C 165.803,168.919 173.636,157.919 181,146.5C 188.831,133.505 196.665,120.505 204.5,107.5C 208.582,101.006 212.416,94.3389 216,87.5C 216.495,89.4727 216.662,91.4727 216.5,93.5 Z"/></g>
<g><path style="opacity:1" fill="#295581" d="M 190.5,138.5 C 187.805,143.517 185.138,148.517 182.5,153.5C 177.003,161.156 172.003,169.156 167.5,177.5C 167.167,177.5 166.833,177.5 166.5,177.5C 166.372,175.345 166.872,173.345 168,171.5C 172.081,165.008 176.415,158.674 181,152.5C 181.333,150.833 181.667,149.167 182,147.5C 182.667,146.167 183.333,146.167 184,147.5C 184.472,143.206 186.638,140.206 190.5,138.5 Z"/></g>
<g><path style="opacity:1" fill="#ca6ec7" d="M 165.5,161.5 C 164.241,165.025 162.241,168.025 159.5,170.5C 160.388,167.757 161.555,165.09 163,162.5C 163.671,161.748 164.504,161.414 165.5,161.5 Z"/></g>
<g><path style="opacity:1" fill="#52d8d3" d="M 203.5,118.5 C 202.047,122.763 200.547,127.096 199,131.5C 194.604,133.82 192.104,137.486 191.5,142.5C 188.582,144.008 187.916,146.175 189.5,149C 187.047,150.848 186.047,153.348 186.5,156.5C 188.484,156.617 190.15,155.95 191.5,154.5C 192.167,155.167 192.833,155.833 193.5,156.5C 196.167,156.167 198.833,155.833 201.5,155.5C 202.814,156.313 203.981,157.313 205,158.5C 205.414,158.043 205.914,157.709 206.5,157.5C 208.141,159.769 208.975,162.102 209,164.5C 210.952,149.893 212.285,135.227 213,120.5C 213.383,119.944 213.883,119.611 214.5,119.5C 214.5,122.5 214.5,125.5 214.5,128.5C 212.776,143.653 211.442,158.986 210.5,174.5C 209.833,177.167 209.167,179.833 208.5,182.5C 205.236,180.791 204.569,178.791 206.5,176.5C 206.547,175 205.881,174 204.5,173.5C 198.538,173.894 192.705,174.894 187,176.5C 185.291,175.43 183.791,174.097 182.5,172.5C 181.269,173.651 181.269,174.817 182.5,176C 181.256,176.456 180.423,175.956 180,174.5C 179.252,176.332 178.252,177.999 177,179.5C 176.517,178.552 176.351,177.552 176.5,176.5C 174.567,176.271 172.9,175.438 171.5,174C 172.448,173.517 173.448,173.351 174.5,173.5C 175.378,167.745 177.878,162.745 182,158.5C 182.494,156.866 182.66,155.199 182.5,153.5C 185.138,148.517 187.805,143.517 190.5,138.5C 194.833,131.833 199.167,125.167 203.5,118.5 Z"/></g>
<g><path style="opacity:1" fill="#080617" d="M 229.5,80.5 C 229.937,114.333 230.603,148 231.5,181.5C 231.169,211.338 231.502,241.005 232.5,270.5C 235.211,274.212 238.544,277.212 242.5,279.5C 244.176,282.543 246.509,284.877 249.5,286.5C 250.855,289.855 253.189,292.189 256.5,293.5C 254.924,294.143 253.59,295.143 252.5,296.5C 246.527,289.86 240.194,283.527 233.5,277.5C 233.5,276.833 233.167,276.5 232.5,276.5C 232.189,275.522 231.522,274.855 230.5,274.5C 223.451,281.88 216.451,289.214 209.5,296.5C 209.167,296.5 208.833,296.5 208.5,296.5C 208.5,295.167 207.833,294.5 206.5,294.5C 213.095,286.402 220.261,278.735 228,271.5C 228.826,260.326 228.659,249.326 227.5,238.5C 227.5,226.167 227.5,213.833 227.5,201.5C 227.5,188.167 227.5,174.833 227.5,161.5C 227.5,159.5 227.5,157.5 227.5,155.5C 228.268,156.263 228.768,157.263 229,158.5C 229.119,132.329 229.285,106.329 229.5,80.5 Z"/></g>
<g><path style="opacity:1" fill="#0d1112" d="M 192.5,82.5 C 192.366,84.2915 192.699,85.9582 193.5,87.5C 166.287,136.602 134.62,182.602 98.5,225.5C 84.6896,240.319 69.6896,253.652 53.5,265.5C 52.0813,264.549 50.4147,264.216 48.5,264.5C 56.7921,258.21 64.7921,251.543 72.5,244.5C 74.34,242.832 76.34,241.332 78.5,240C 80.4641,238.549 81.7974,236.716 82.5,234.5C 84.785,232.882 86.785,230.882 88.5,228.5C 102.308,215.03 114.641,200.363 125.5,184.5C 141.971,163.577 156.971,141.577 170.5,118.5C 176.989,108.867 182.989,98.8672 188.5,88.5C 189.846,86.4632 191.18,84.4632 192.5,82.5 Z"/></g>
<g><path style="opacity:1" fill="#dd85d6" d="M 149.5,166.5 C 147.363,171.783 144.03,176.116 139.5,179.5C 142.594,174.978 145.927,170.644 149.5,166.5 Z"/></g>
<g><path style="opacity:1" fill="#50f2e2" d="M 55.5,198.5 C 56.4299,194.6 56.7633,190.6 56.5,186.5C 57.3636,185.312 58.3636,184.145 59.5,183C 58.8575,174.012 58.8575,164.846 59.5,155.5C 60.5,155.5 61.5,155.5 62.5,155.5C 62.335,152.15 62.5017,148.817 63,145.5C 63.6667,148.167 64.3333,148.167 65,145.5C 65.7112,147.367 65.2112,148.867 63.5,150C 64.2744,152.405 64.7744,154.905 65,157.5C 65.5029,152.81 66.1696,148.143 67,143.5C 67.3333,144.5 67.6667,145.5 68,146.5C 68.1968,144.139 69.3635,142.472 71.5,141.5C 69.9756,139.208 70.3089,137.208 72.5,135.5C 71.9747,134.808 71.3081,134.308 70.5,134C 71.2744,131.595 71.7744,129.095 72,126.5C 72.3333,127.167 72.6667,127.833 73,128.5C 73.6054,126.519 74.6054,126.185 76,127.5C 78.5598,125.414 81.3931,123.747 84.5,122.5C 89.5592,126.028 88.8926,127.528 82.5,127C 82.8333,127.333 83.1667,127.667 83.5,128C 82.5,128.333 81.5,128.667 80.5,129C 80.8333,129.333 81.1667,129.667 81.5,130C 80.0692,130.465 78.9025,131.299 78,132.5C 77.6827,130.699 77.016,130.366 76,131.5C 75.6699,134.866 76.0033,138.199 77,141.5C 79.6529,143.029 82.4863,144.196 85.5,145C 84.1667,145.667 82.8333,146.333 81.5,147C 82.8333,147.667 84.1667,148.333 85.5,149C 85.1667,149.333 84.8333,149.667 84.5,150C 85.3521,152.206 86.3521,154.373 87.5,156.5C 87.3201,157.554 86.9867,158.554 86.5,159.5C 88.7427,160.474 91.076,160.808 93.5,160.5C 93.5,164.5 93.5,168.5 93.5,172.5C 90.2784,172.108 87.2784,172.608 84.5,174C 88.5,174.333 92.5,174.667 96.5,175C 97.8882,175.889 97.7215,176.389 96,176.5C 93.9223,175.057 93.0889,175.724 93.5,178.5C 95.5,178.5 97.5,178.5 99.5,178.5C 101.321,175.248 100.654,172.748 97.5,171C 98.6405,170.259 98.6405,169.425 97.5,168.5C 98.6283,167.738 99.7949,167.071 101,166.5C 100.695,168.443 100.695,170.443 101,172.5C 103.738,171.518 106.572,170.852 109.5,170.5C 109.238,171.978 109.571,173.311 110.5,174.5C 112.62,173.128 113.62,173.795 113.5,176.5C 115.911,176.863 117.411,175.863 118,173.5C 118.167,174 118.333,174.5 118.5,175C 116.975,177.03 115.642,179.197 114.5,181.5C 113.996,178.658 112.329,177.325 109.5,177.5C 110.889,182.099 111.556,186.599 111.5,191C 110.833,191.333 110.167,191.667 109.5,192C 110.793,192.49 112.127,192.657 113.5,192.5C 113.785,194.288 113.452,195.955 112.5,197.5C 111.147,198.685 109.98,200.019 109,201.5C 106.175,200.416 106.008,199.249 108.5,198C 107.531,196.242 106.364,195.742 105,196.5C 104.577,195.044 103.744,194.544 102.5,195C 102.833,195.333 103.167,195.667 103.5,196C 102.422,196.674 101.755,197.674 101.5,199C 101.539,200.894 102.206,201.894 103.5,202C 102.244,203.845 101.244,205.845 100.5,208C 100.759,209.261 101.426,210.261 102.5,211C 102,211.167 101.5,211.333 101,211.5C 99.8371,209.672 98.1704,208.672 96,208.5C 92.2565,209.894 88.4232,210.894 84.5,211.5C 79.483,209.755 74.3163,208.421 69,207.5C 66.9637,208.102 65.1303,209.102 63.5,210.5C 62.7492,209.624 62.2492,208.624 62,207.5C 61.6667,208.167 61.3333,208.833 61,209.5C 60.6667,208.167 60.3333,206.833 60,205.5C 59.3333,207.833 59.3333,210.167 60,212.5C 61.2727,215.062 60.606,217.396 58,219.5C 57.8269,214.828 57.9936,210.328 58.5,206C 58.1537,203.06 57.1537,200.56 55.5,198.5 Z"/></g>
<g><path style="opacity:1" fill="#53cad1" d="M 182.5,153.5 C 182.66,155.199 182.494,156.866 182,158.5C 177.878,162.745 175.378,167.745 174.5,173.5C 173.448,173.351 172.448,173.517 171.5,174C 172.9,175.438 174.567,176.271 176.5,176.5C 176.351,177.552 176.517,178.552 177,179.5C 178.252,177.999 179.252,176.332 180,174.5C 180.423,175.956 181.256,176.456 182.5,176C 181.269,174.817 181.269,173.651 182.5,172.5C 183.791,174.097 185.291,175.43 187,176.5C 192.705,174.894 198.538,173.894 204.5,173.5C 205.881,174 206.547,175 206.5,176.5C 204.569,178.791 205.236,180.791 208.5,182.5C 208.5,183.833 208.5,185.167 208.5,186.5C 207.624,186.369 206.957,186.702 206.5,187.5C 207.59,188.609 207.59,189.609 206.5,190.5C 202.618,188.301 198.451,186.968 194,186.5C 191.639,187.512 188.972,187.179 186,185.5C 182.333,185.833 178.667,186.167 175,186.5C 172.822,183.532 171.656,183.865 171.5,187.5C 169.8,187.374 168.3,186.707 167,185.5C 166.228,185.645 165.561,185.978 165,186.5C 165.684,183.595 166.517,180.595 167.5,177.5C 172.003,169.156 177.003,161.156 182.5,153.5 Z"/></g>
<g><path style="opacity:1" fill="#e08ddb" d="M 139.5,179.5 C 139.657,180.873 139.49,182.207 139,183.5C 135.657,186.676 132.49,190.009 129.5,193.5C 132.345,188.473 135.679,183.806 139.5,179.5 Z"/></g>
<g><path style="opacity:1" fill="#7d61b1" d="M 231.5,169.5 C 231.833,169.5 232.167,169.5 232.5,169.5C 232.34,171.199 232.506,172.866 233,174.5C 234.356,173.62 235.856,173.286 237.5,173.5C 237.5,172.5 237.5,171.5 237.5,170.5C 238.5,170.5 239.5,170.5 240.5,170.5C 240.587,173.578 241.92,175.911 244.5,177.5C 245.001,185.369 246.001,193.036 247.5,200.5C 248.541,206.79 249.208,213.123 249.5,219.5C 248.097,212.963 246.764,206.296 245.5,199.5C 245.303,195.378 244.47,191.378 243,187.5C 241.354,188.941 241.187,190.608 242.5,192.5C 242.101,194.197 241.601,195.863 241,197.5C 240.381,194.968 239.381,192.635 238,190.5C 237.072,192.335 235.906,192.668 234.5,191.5C 233.088,195.717 232.421,200.05 232.5,204.5C 232.5,211.5 232.5,218.5 232.5,225.5C 232.5,240.5 232.5,255.5 232.5,270.5C 231.502,241.005 231.169,211.338 231.5,181.5C 231.5,177.5 231.5,173.5 231.5,169.5 Z"/></g>
<g><path style="opacity:1" fill="#d66ed2" d="M 153.5,179.5 C 153.5,179.833 153.5,180.167 153.5,180.5C 149.833,185.167 146.167,189.833 142.5,194.5C 143.167,191.833 143.833,189.167 144.5,186.5C 145.5,186.5 146.5,186.5 147.5,186.5C 148.199,184.005 149.199,181.672 150.5,179.5C 151.5,179.5 152.5,179.5 153.5,179.5 Z"/></g>
<g><path style="opacity:1" fill="#97a3a6" d="M 49.5,171.5 C 49.6787,177.404 49.0121,183.071 47.5,188.5C 47.596,182.627 48.2627,176.96 49.5,171.5 Z"/></g>
<g><path style="opacity:1" fill="#5d4d83" d="M 244.5,174.5 C 244.833,174.5 245.167,174.5 245.5,174.5C 246.24,183.161 246.907,191.827 247.5,200.5C 246.001,193.036 245.001,185.369 244.5,177.5C 244.5,176.5 244.5,175.5 244.5,174.5 Z"/></g>
<g><path style="opacity:1" fill="#55bdca" d="M 166.5,177.5 C 166.833,177.5 167.167,177.5 167.5,177.5C 166.517,180.595 165.684,183.595 165,186.5C 165.561,185.978 166.228,185.645 167,185.5C 168.3,186.707 169.8,187.374 171.5,187.5C 171.656,183.865 172.822,183.532 175,186.5C 178.667,186.167 182.333,185.833 186,185.5C 188.972,187.179 191.639,187.512 194,186.5C 198.451,186.968 202.618,188.301 206.5,190.5C 207.59,189.609 207.59,188.609 206.5,187.5C 206.957,186.702 207.624,186.369 208.5,186.5C 208.665,190.182 208.499,193.848 208,197.5C 205.876,202.396 204.543,202.396 204,197.5C 203.707,200.954 202.374,201.288 200,198.5C 199.667,198.833 199.333,199.167 199,199.5C 195.24,198.867 191.573,197.867 188,196.5C 187,196.833 186,197.167 185,197.5C 178.581,196.687 172.081,196.187 165.5,196C 164.234,195.691 163.067,195.191 162,194.5C 161.667,195.5 161.333,196.5 161,197.5C 159.128,196.176 158.295,194.676 158.5,193C 161.036,191.076 162.036,188.576 161.5,185.5C 163.156,182.861 164.822,180.195 166.5,177.5 Z"/></g>
<g><path style="opacity:1" fill="#56b2c5" d="M 210.5,174.5 C 210.161,185.611 209.161,196.611 207.5,207.5C 206.778,207.918 206.278,208.584 206,209.5C 205.667,208.833 205.333,208.167 205,207.5C 204.138,209.087 203.471,210.754 203,212.5C 201.667,212.5 200.333,212.5 199,212.5C 198.29,211.027 197.124,210.36 195.5,210.5C 195.281,209.325 195.614,208.325 196.5,207.5C 197.5,208.833 198.5,208.833 199.5,207.5C 200.251,208.376 200.751,209.376 201,210.5C 201.495,208.527 201.662,206.527 201.5,204.5C 198.115,204.154 194.782,203.488 191.5,202.5C 190.446,202.68 189.446,203.013 188.5,203.5C 184.924,201.733 181.091,200.733 177,200.5C 173.006,201.277 168.839,201.277 164.5,200.5C 161.624,203.221 159.124,202.888 157,199.5C 156.825,196.843 156.992,194.176 157.5,191.5C 158.475,189.205 159.808,187.205 161.5,185.5C 162.036,188.576 161.036,191.076 158.5,193C 158.295,194.676 159.128,196.176 161,197.5C 161.333,196.5 161.667,195.5 162,194.5C 163.067,195.191 164.234,195.691 165.5,196C 172.081,196.187 178.581,196.687 185,197.5C 186,197.167 187,196.833 188,196.5C 191.573,197.867 195.24,198.867 199,199.5C 199.333,199.167 199.667,198.833 200,198.5C 202.374,201.288 203.707,200.954 204,197.5C 204.543,202.396 205.876,202.396 208,197.5C 208.499,193.848 208.665,190.182 208.5,186.5C 208.5,185.167 208.5,183.833 208.5,182.5C 209.167,179.833 209.833,177.167 210.5,174.5 Z"/></g>
<g><path style="opacity:1" fill="#435b86" d="M 216.5,155.5 C 216.312,164.903 216.312,174.236 216.5,183.5C 215.419,191.195 214.419,198.862 213.5,206.5C 213.167,206.5 212.833,206.5 212.5,206.5C 213.122,194.497 213.789,182.497 214.5,170.5C 215.167,165.5 215.833,160.5 216.5,155.5 Z"/></g>
<g><path style="opacity:1" fill="#916ac7" d="M 245.5,199.5 C 241.764,200.324 238.264,200.991 235,201.5C 234.667,200.833 234.333,200.167 234,199.5C 233.802,201.382 233.302,203.048 232.5,204.5C 232.421,200.05 233.088,195.717 234.5,191.5C 235.906,192.668 237.072,192.335 238,190.5C 239.381,192.635 240.381,194.968 241,197.5C 241.601,195.863 242.101,194.197 242.5,192.5C 241.187,190.608 241.354,188.941 243,187.5C 244.47,191.378 245.303,195.378 245.5,199.5 Z"/></g>
<g><path style="opacity:1" fill="#d17fd7" d="M 129.5,193.5 C 127.925,197.078 125.925,200.411 123.5,203.5C 121.032,206.158 118.365,208.491 115.5,210.5C 120.197,204.809 124.863,199.142 129.5,193.5 Z"/></g>
<g><path style="opacity:1" fill="#a66ad3" d="M 245.5,199.5 C 246.764,206.296 248.097,212.963 249.5,219.5C 249.998,224.152 250.331,228.819 250.5,233.5C 249.095,230.074 248.095,226.408 247.5,222.5C 246.424,220.013 245.09,217.68 243.5,215.5C 242.066,217.22 241.233,219.22 241,221.5C 240.472,214.927 239.638,214.927 238.5,221.5C 237.757,220.092 236.923,218.759 236,217.5C 234.907,220.309 233.74,222.976 232.5,225.5C 232.5,218.5 232.5,211.5 232.5,204.5C 233.302,203.048 233.802,201.382 234,199.5C 234.333,200.167 234.667,200.833 235,201.5C 238.264,200.991 241.764,200.324 245.5,199.5 Z"/></g>
<g><path style="opacity:1" fill="#56aac2" d="M 157.5,191.5 C 156.992,194.176 156.825,196.843 157,199.5C 159.124,202.888 161.624,203.221 164.5,200.5C 168.839,201.277 173.006,201.277 177,200.5C 181.091,200.733 184.924,201.733 188.5,203.5C 189.446,203.013 190.446,202.68 191.5,202.5C 194.782,203.488 198.115,204.154 201.5,204.5C 201.662,206.527 201.495,208.527 201,210.5C 200.751,209.376 200.251,208.376 199.5,207.5C 198.5,208.833 197.5,208.833 196.5,207.5C 195.614,208.325 195.281,209.325 195.5,210.5C 197.124,210.36 198.29,211.027 199,212.5C 200.333,212.5 201.667,212.5 203,212.5C 203.471,210.754 204.138,209.087 205,207.5C 205.333,208.167 205.667,208.833 206,209.5C 206.278,208.584 206.778,207.918 207.5,207.5C 207.5,209.833 207.5,212.167 207.5,214.5C 206.566,217.656 205.899,220.989 205.5,224.5C 204.325,224.719 203.325,224.386 202.5,223.5C 203.52,221.568 203.687,219.568 203,217.5C 202.667,217.833 202.333,218.167 202,218.5C 200.477,216.38 198.644,216.047 196.5,217.5C 192.691,216.815 189.024,215.815 185.5,214.5C 181.662,214.668 177.829,215.002 174,215.5C 169.405,214.138 164.738,213.138 160,212.5C 159.667,212.833 159.333,213.167 159,213.5C 158.311,212.643 157.478,211.977 156.5,211.5C 153.096,213.107 150.429,212.273 148.5,209C 148.596,206.58 149.263,204.08 150.5,201.5C 151.529,199.483 152.529,197.483 153.5,195.5C 155.194,194.473 156.527,193.139 157.5,191.5 Z"/></g>
<g><path style="opacity:1" fill="#333f76" d="M 157.5,181.5 C 157.663,183.857 157.497,186.19 157,188.5C 155.121,190.527 153.954,192.86 153.5,195.5C 152.529,197.483 151.529,199.483 150.5,201.5C 145.144,208.198 140.144,215.198 135.5,222.5C 131.452,226.254 128.118,230.587 125.5,235.5C 122.491,238.177 119.824,241.177 117.5,244.5C 117.167,244.5 116.833,244.5 116.5,244.5C 116.558,240.953 118.225,238.62 121.5,237.5C 120.758,236.713 119.925,236.047 119,235.5C 115.292,237.742 111.792,240.075 108.5,242.5C 126.003,223.009 142.336,202.676 157.5,181.5 Z"/></g>
<g><path style="opacity:1" fill="#c38bd5" d="M 115.5,210.5 C 113.967,214.704 111.3,218.037 107.5,220.5C 109.794,216.873 112.46,213.539 115.5,210.5 Z"/></g>
<g><path style="opacity:1" fill="#579dbd" d="M 150.5,201.5 C 149.263,204.08 148.596,206.58 148.5,209C 150.429,212.273 153.096,213.107 156.5,211.5C 157.478,211.977 158.311,212.643 159,213.5C 159.333,213.167 159.667,212.833 160,212.5C 164.738,213.138 169.405,214.138 174,215.5C 177.829,215.002 181.662,214.668 185.5,214.5C 189.024,215.815 192.691,216.815 196.5,217.5C 198.644,216.047 200.477,216.38 202,218.5C 202.333,218.167 202.667,217.833 203,217.5C 203.687,219.568 203.52,221.568 202.5,223.5C 203.325,224.386 204.325,224.719 205.5,224.5C 205.665,227.518 205.498,230.518 205,233.5C 204.149,230.388 202.983,230.054 201.5,232.5C 200.808,231.975 200.308,231.308 200,230.5C 197,230.5 194,230.5 191,230.5C 190.667,229.833 190.333,229.167 190,228.5C 188.601,228.501 187.101,228.835 185.5,229.5C 180.006,227.736 174.506,227.069 169,227.5C 167.334,225.597 165.5,225.263 163.5,226.5C 157.21,224.587 150.876,223.92 144.5,224.5C 143.522,224.023 142.689,223.357 142,222.5C 140.477,224.569 139.643,226.903 139.5,229.5C 136.538,229.883 135.538,228.883 136.5,226.5C 137.192,227.025 137.692,227.692 138,228.5C 138.862,225.457 138.029,224.457 135.5,225.5C 135.5,224.5 135.5,223.5 135.5,222.5C 140.144,215.198 145.144,208.198 150.5,201.5 Z"/></g>
<g><path style="opacity:1" fill="#3e4c78" d="M 212.5,210.5 C 212.575,221.227 211.908,231.894 210.5,242.5C 210.664,245.187 210.497,247.854 210,250.5C 209.617,251.056 209.117,251.389 208.5,251.5C 209.13,237.622 210.464,223.955 212.5,210.5 Z"/></g>
<g><path style="opacity:1" fill="#cf67e2" d="M 142.5,194.5 C 137.5,201.167 132.5,207.833 127.5,214.5C 123.808,214.324 121.808,215.991 121.5,219.5C 119.833,220.167 118.167,220.833 116.5,221.5C 116.577,224.012 115.577,226.012 113.5,227.5C 112.833,227.167 112.167,226.833 111.5,226.5C 109.401,228.534 107.068,228.868 104.5,227.5C 105.952,226.06 106.952,224.394 107.5,222.5C 107.5,221.833 107.5,221.167 107.5,220.5C 111.3,218.037 113.967,214.704 115.5,210.5C 118.365,208.491 121.032,206.158 123.5,203.5C 121.666,207.162 119.333,210.496 116.5,213.5C 116.833,214.167 117.167,214.833 117.5,215.5C 120.333,214.067 123.333,213.4 126.5,213.5C 126.298,211.011 126.798,208.677 128,206.5C 128.414,206.957 128.914,207.291 129.5,207.5C 130.833,205.5 132.5,203.833 134.5,202.5C 135.429,201.311 135.762,199.978 135.5,198.5C 136.5,198.5 137.5,198.5 138.5,198.5C 138.167,195.5 139.5,194.167 142.5,194.5 Z"/></g>
<g><path style="opacity:1" fill="#3f5798" d="M 226.5,238.5 C 226.829,245.241 226.329,251.908 225,258.5C 224.667,256.833 224.333,255.167 224,253.5C 223.667,254.5 223.333,255.5 223,256.5C 222.086,254.336 220.919,252.336 219.5,250.5C 218.416,251.665 217.583,252.998 217,254.5C 214.299,250.628 212.799,246.294 212.5,241.5C 211.817,241.863 211.15,242.196 210.5,242.5C 211.908,231.894 212.575,221.227 212.5,210.5C 212.5,209.167 212.5,207.833 212.5,206.5C 212.833,206.5 213.167,206.5 213.5,206.5C 214.479,205.235 215.479,203.901 216.5,202.5C 217.425,203.641 218.259,203.641 219,202.5C 219.29,204.044 219.956,205.377 221,206.5C 222.418,203.999 223.418,204.332 224,207.5C 224.333,205.833 224.667,204.167 225,202.5C 226.415,214.438 226.915,226.438 226.5,238.5 Z"/></g>
<g><path style="opacity:1" fill="#987fbd" d="M 107.5,220.5 C 107.5,221.167 107.5,221.833 107.5,222.5C 105.537,223.96 103.704,225.627 102,227.5C 99.7004,231.952 96.867,235.952 93.5,239.5C 89.5713,240.431 86.9047,242.764 85.5,246.5C 84.1667,246.833 82.8333,247.167 81.5,247.5C 87.5,241.167 93.5,234.833 99.5,228.5C 101.806,225.527 104.473,222.86 107.5,220.5 Z"/></g>
<g><path style="opacity:1" fill="#ca69df" d="M 250.5,233.5 C 250.575,236.206 250.908,238.873 251.5,241.5C 251.323,245.234 251.656,248.901 252.5,252.5C 252.5,254.5 252.5,256.5 252.5,258.5C 251.225,254.898 250.225,251.231 249.5,247.5C 249.666,243.154 249.499,238.821 249,234.5C 244.696,232.586 240.196,232.086 235.5,233C 233.184,239.359 232.851,245.859 234.5,252.5C 234.334,258.509 234.501,264.509 235,270.5C 237.764,273.417 240.264,276.417 242.5,279.5C 238.544,277.212 235.211,274.212 232.5,270.5C 232.5,255.5 232.5,240.5 232.5,225.5C 233.74,222.976 234.907,220.309 236,217.5C 236.923,218.759 237.757,220.092 238.5,221.5C 239.638,214.927 240.472,214.927 241,221.5C 241.233,219.22 242.066,217.22 243.5,215.5C 245.09,217.68 246.424,220.013 247.5,222.5C 248.095,226.408 249.095,230.074 250.5,233.5 Z"/></g>
<g><path style="opacity:1" fill="#59e2db" d="M 57.5,170.5 C 57.5276,175.862 57.1942,181.195 56.5,186.5C 56.7633,190.6 56.4299,194.6 55.5,198.5C 55.1679,203.161 54.8346,207.828 54.5,212.5C 54.2069,216.45 55.0402,220.116 57,223.5C 57.3333,222.833 57.6667,222.167 58,221.5C 59.7398,222.716 60.7398,224.382 61,226.5C 61.2579,223.314 62.9246,221.314 66,220.5C 67.4579,221.747 68.9579,221.747 70.5,220.5C 71.1667,221.167 71.8333,221.833 72.5,222.5C 73.6681,220.603 75.3348,220.436 77.5,222C 76.5,222.333 75.5,222.667 74.5,223C 75.7659,223.309 76.9326,223.809 78,224.5C 78.3333,224.167 78.6667,223.833 79,223.5C 79.3742,224.416 79.8742,225.25 80.5,226C 78.1055,229.314 76.7721,228.814 76.5,224.5C 72.8019,224.448 69.1352,224.114 65.5,223.5C 65.5,225.833 65.5,228.167 65.5,230.5C 68.1761,229.992 70.8428,229.825 73.5,230C 75.9897,230.495 77.4897,231.995 78,234.5C 80.1476,233.195 81.6476,231.362 82.5,229C 84.3867,229.423 86.3867,229.256 88.5,228.5C 86.785,230.882 84.785,232.882 82.5,234.5C 79.5941,234.903 77.7607,236.569 77,239.5C 76.586,239.043 76.086,238.709 75.5,238.5C 73.2529,240.305 70.7529,241.638 68,242.5C 67.2797,240.888 67.4464,239.388 68.5,238C 65.6012,236.853 62.6012,236.019 59.5,235.5C 58.3527,235.818 57.5194,236.484 57,237.5C 53.1799,234.908 51.5133,231.242 52,226.5C 51.5026,229.146 51.3359,231.813 51.5,234.5C 50.8333,235.833 50.1667,237.167 49.5,238.5C 50.8261,229.889 51.4927,221.223 51.5,212.5C 53.3678,198.471 55.3678,184.471 57.5,170.5 Z"/></g>
<g><path style="opacity:1" fill="#ae6ad2" d="M 127.5,214.5 C 122.175,221.157 116.509,227.49 110.5,233.5C 107.665,234.069 105.999,235.736 105.5,238.5C 104.5,238.5 103.5,238.5 102.5,238.5C 102.5,239.5 102.5,240.5 102.5,241.5C 99.0726,242.963 96.0726,242.296 93.5,239.5C 96.867,235.952 99.7004,231.952 102,227.5C 103.704,225.627 105.537,223.96 107.5,222.5C 106.952,224.394 105.952,226.06 104.5,227.5C 107.068,228.868 109.401,228.534 111.5,226.5C 112.167,226.833 112.833,227.167 113.5,227.5C 115.577,226.012 116.577,224.012 116.5,221.5C 118.167,220.833 119.833,220.167 121.5,219.5C 121.808,215.991 123.808,214.324 127.5,214.5 Z"/></g>
<g><path style="opacity:1" fill="#5691b6" d="M 207.5,214.5 C 206.935,223.509 206.269,232.509 205.5,241.5C 204.661,242.641 203.994,243.974 203.5,245.5C 202.726,246.711 201.893,246.711 201,245.5C 200.581,246.672 199.915,247.672 199,248.5C 197.649,246.981 196.149,245.648 194.5,244.5C 193.522,244.977 192.689,245.643 192,246.5C 188.588,244.56 184.921,243.227 181,242.5C 171.932,242.241 162.765,242.241 153.5,242.5C 153.5,240.833 153.5,239.167 153.5,237.5C 162.839,237.666 172.173,237.5 181.5,237C 178.002,236.792 174.669,235.959 171.5,234.5C 170.167,235.167 168.833,235.833 167.5,236.5C 159.555,235.221 151.722,233.554 144,231.5C 143.534,233.352 142.701,235.352 141.5,237.5C 143.199,237.34 144.866,237.506 146.5,238C 145.234,238.309 144.067,238.809 143,239.5C 139.424,237.962 135.924,236.295 132.5,234.5C 129.151,235.83 128.818,235.33 131.5,233C 131.167,232.667 130.833,232.333 130.5,232C 131.833,231 133.167,230 134.5,229C 133.713,227.687 134.046,226.52 135.5,225.5C 138.029,224.457 138.862,225.457 138,228.5C 137.692,227.692 137.192,227.025 136.5,226.5C 135.538,228.883 136.538,229.883 139.5,229.5C 139.643,226.903 140.477,224.569 142,222.5C 142.689,223.357 143.522,224.023 144.5,224.5C 150.876,223.92 157.21,224.587 163.5,226.5C 165.5,225.263 167.334,225.597 169,227.5C 174.506,227.069 180.006,227.736 185.5,229.5C 187.101,228.835 188.601,228.501 190,228.5C 190.333,229.167 190.667,229.833 191,230.5C 194,230.5 197,230.5 200,230.5C 200.308,231.308 200.808,231.975 201.5,232.5C 202.983,230.054 204.149,230.388 205,233.5C 205.498,230.518 205.665,227.518 205.5,224.5C 205.899,220.989 206.566,217.656 207.5,214.5 Z"/></g>
<g><path style="opacity:1" fill="#5283b4" d="M 125.5,235.5 C 125.337,237.857 125.503,240.19 126,242.5C 126.689,243.357 127.522,244.023 128.5,244.5C 131.238,243.9 133.738,243.9 136,244.5C 139.229,246.08 142.562,247.413 146,248.5C 146.95,247.978 147.784,247.311 148.5,246.5C 150.655,247.905 152.821,249.238 155,250.5C 160.583,250.743 166.083,250.41 171.5,249.5C 178.249,251.46 185.083,253.127 192,254.5C 192.689,253.643 193.522,252.977 194.5,252.5C 196.063,253.945 197.396,255.611 198.5,257.5C 197.752,259.416 197.752,261.416 198.5,263.5C 196.694,262.794 194.861,263.127 193,264.5C 191.667,263.833 190.667,262.833 190,261.5C 189.439,262.022 188.772,262.355 188,262.5C 185.865,261.873 183.698,261.373 181.5,261C 184.23,259.768 184.063,258.935 181,258.5C 179.105,258.615 177.438,259.282 176,260.5C 175.439,259.978 174.772,259.645 174,259.5C 170.944,260.077 167.944,260.743 165,261.5C 163.334,259.597 161.5,259.263 159.5,260.5C 154.552,257.667 149.386,256.667 144,257.5C 142.329,255.724 140.496,255.39 138.5,256.5C 136.833,255.5 135.167,254.5 133.5,253.5C 130.092,255.048 126.926,254.715 124,252.5C 122.832,253.509 121.665,254.509 120.5,255.5C 119.033,254.305 117.533,254.305 116,255.5C 115.5,255.333 115,255.167 114.5,255C 116.004,253.509 116.837,251.676 117,249.5C 117.333,250.167 117.667,250.833 118,251.5C 118.309,250.234 118.809,249.067 119.5,248C 118.177,247.184 117.511,246.017 117.5,244.5C 119.824,241.177 122.491,238.177 125.5,235.5 Z"/></g>
<g><path style="opacity:1" fill="#59d4d6" d="M 82.5,234.5 C 81.7974,236.716 80.4641,238.549 78.5,240C 76.34,241.332 74.34,242.832 72.5,244.5C 71.5041,244.586 70.6708,244.252 70,243.5C 68.4654,247.083 65.7988,249.416 62,250.5C 60.5604,248.954 58.7271,248.121 56.5,248C 57.2135,246.657 56.8802,245.324 55.5,244C 58.3304,241.062 57.6637,239.728 53.5,240C 56.1438,242.291 55.8105,242.791 52.5,241.5C 51.6258,239.253 51.2924,236.92 51.5,234.5C 51.3359,231.813 51.5026,229.146 52,226.5C 51.5133,231.242 53.1799,234.908 57,237.5C 57.5194,236.484 58.3527,235.818 59.5,235.5C 62.6012,236.019 65.6012,236.853 68.5,238C 67.4464,239.388 67.2797,240.888 68,242.5C 70.7529,241.638 73.2529,240.305 75.5,238.5C 76.086,238.709 76.586,239.043 77,239.5C 77.7607,236.569 79.5941,234.903 82.5,234.5 Z"/></g>
<g><path style="opacity:1" fill="#5588b4" d="M 135.5,222.5 C 135.5,223.5 135.5,224.5 135.5,225.5C 134.046,226.52 133.713,227.687 134.5,229C 133.167,230 131.833,231 130.5,232C 130.833,232.333 131.167,232.667 131.5,233C 128.818,235.33 129.151,235.83 132.5,234.5C 135.924,236.295 139.424,237.962 143,239.5C 144.067,238.809 145.234,238.309 146.5,238C 144.866,237.506 143.199,237.34 141.5,237.5C 142.701,235.352 143.534,233.352 144,231.5C 151.722,233.554 159.555,235.221 167.5,236.5C 168.833,235.833 170.167,235.167 171.5,234.5C 174.669,235.959 178.002,236.792 181.5,237C 172.173,237.5 162.839,237.666 153.5,237.5C 153.5,239.167 153.5,240.833 153.5,242.5C 162.765,242.241 171.932,242.241 181,242.5C 184.921,243.227 188.588,244.56 192,246.5C 192.689,245.643 193.522,244.977 194.5,244.5C 196.149,245.648 197.649,246.981 199,248.5C 199.915,247.672 200.581,246.672 201,245.5C 201.893,246.711 202.726,246.711 203.5,245.5C 203.994,243.974 204.661,242.641 205.5,241.5C 205.003,250.364 204.003,259.031 202.5,267.5C 201.948,265.669 201.948,264.003 202.5,262.5C 201.833,262.167 201.167,261.833 200.5,261.5C 201.762,259.425 201.595,257.425 200,255.5C 200.479,258.27 199.979,260.936 198.5,263.5C 197.752,261.416 197.752,259.416 198.5,257.5C 197.396,255.611 196.063,253.945 194.5,252.5C 193.522,252.977 192.689,253.643 192,254.5C 185.083,253.127 178.249,251.46 171.5,249.5C 166.083,250.41 160.583,250.743 155,250.5C 152.821,249.238 150.655,247.905 148.5,246.5C 147.784,247.311 146.95,247.978 146,248.5C 142.562,247.413 139.229,246.08 136,244.5C 133.738,243.9 131.238,243.9 128.5,244.5C 127.522,244.023 126.689,243.357 126,242.5C 125.503,240.19 125.337,237.857 125.5,235.5C 128.118,230.587 131.452,226.254 135.5,222.5 Z"/></g>
<g><path style="opacity:1" fill="#5bc8ce" d="M 51.5,234.5 C 51.2924,236.92 51.6258,239.253 52.5,241.5C 55.8105,242.791 56.1438,242.291 53.5,240C 57.6637,239.728 58.3304,241.062 55.5,244C 56.8802,245.324 57.2135,246.657 56.5,248C 58.7271,248.121 60.5604,248.954 62,250.5C 65.7988,249.416 68.4654,247.083 70,243.5C 70.6708,244.252 71.5041,244.586 72.5,244.5C 64.7921,251.543 56.7921,258.21 48.5,264.5C 47.8333,264.833 47.1667,265.167 46.5,265.5C 48.0926,256.575 49.0926,247.575 49.5,238.5C 50.1667,237.167 50.8333,235.833 51.5,234.5 Z"/></g>
<g><path style="opacity:1" fill="#da63e6" d="M 249.5,247.5 C 248.341,248.456 247.174,249.456 246,250.5C 244.238,250.056 244.405,249.556 246.5,249C 245.333,248.5 244.5,247.667 244,246.5C 243.77,250.213 242.603,250.88 240.5,248.5C 239.808,249.025 239.308,249.692 239,250.5C 238.333,249.167 237.667,247.833 237,246.5C 235.981,248.502 235.148,250.502 234.5,252.5C 232.851,245.859 233.184,239.359 235.5,233C 240.196,232.086 244.696,232.586 249,234.5C 249.499,238.821 249.666,243.154 249.5,247.5 Z"/></g>
<g><path style="opacity:1" fill="#816dc1" d="M 110.5,233.5 C 106.539,239.129 101.873,244.129 96.5,248.5C 94.4176,248.528 92.5843,247.861 91,246.5C 91.3333,247.833 91.6667,249.167 92,250.5C 89.9189,249.667 87.7522,249.667 85.5,250.5C 85.5,249.167 85.5,247.833 85.5,246.5C 86.9047,242.764 89.5713,240.431 93.5,239.5C 96.0726,242.296 99.0726,242.963 102.5,241.5C 102.5,240.5 102.5,239.5 102.5,238.5C 103.5,238.5 104.5,238.5 105.5,238.5C 105.999,235.736 107.665,234.069 110.5,233.5 Z"/></g>
<g><path style="opacity:1" fill="#dfebf1" d="M 98.5,225.5 C 99.404,226.209 99.7373,227.209 99.5,228.5C 93.5,234.833 87.5,241.167 81.5,247.5C 77.4741,251.195 73.4741,254.862 69.5,258.5C 60.905,265.141 51.905,271.308 42.5,277C 35.5913,280.038 28.758,283.205 22,286.5C 21.5357,285.906 21.369,285.239 21.5,284.5C 21.5,284.167 21.5,283.833 21.5,283.5C 22.3636,282.312 23.3636,281.145 24.5,280C 35.0198,276.74 44.6864,271.907 53.5,265.5C 69.6896,253.652 84.6896,240.319 98.5,225.5 Z"/></g>
<g><path style="opacity:1" fill="#3e4d8a" d="M 226.5,238.5 C 226.833,238.5 227.167,238.5 227.5,238.5C 228.659,249.326 228.826,260.326 228,271.5C 220.261,278.735 213.095,286.402 206.5,294.5C 206.167,294.5 205.833,294.5 205.5,294.5C 205.749,280.101 206.749,265.768 208.5,251.5C 209.117,251.389 209.617,251.056 210,250.5C 210.497,247.854 210.664,245.187 210.5,242.5C 211.15,242.196 211.817,241.863 212.5,241.5C 212.799,246.294 214.299,250.628 217,254.5C 217.583,252.998 218.416,251.665 219.5,250.5C 220.919,252.336 222.086,254.336 223,256.5C 223.333,255.5 223.667,254.5 224,253.5C 224.333,255.167 224.667,256.833 225,258.5C 226.329,251.908 226.829,245.241 226.5,238.5 Z"/></g>
<g><path style="opacity:1" fill="#517caf" d="M 116.5,244.5 C 116.833,244.5 117.167,244.5 117.5,244.5C 117.511,246.017 118.177,247.184 119.5,248C 118.809,249.067 118.309,250.234 118,251.5C 117.667,250.833 117.333,250.167 117,249.5C 116.837,251.676 116.004,253.509 114.5,255C 115,255.167 115.5,255.333 116,255.5C 117.533,254.305 119.033,254.305 120.5,255.5C 121.665,254.509 122.832,253.509 124,252.5C 126.926,254.715 130.092,255.048 133.5,253.5C 135.167,254.5 136.833,255.5 138.5,256.5C 140.496,255.39 142.329,255.724 144,257.5C 149.386,256.667 154.552,257.667 159.5,260.5C 161.5,259.263 163.334,259.597 165,261.5C 167.944,260.743 170.944,260.077 174,259.5C 174.772,259.645 175.439,259.978 176,260.5C 177.438,259.282 179.105,258.615 181,258.5C 184.063,258.935 184.23,259.768 181.5,261C 183.698,261.373 185.865,261.873 188,262.5C 188.772,262.355 189.439,262.022 190,261.5C 190.667,262.833 191.667,263.833 193,264.5C 194.861,263.127 196.694,262.794 198.5,263.5C 199.979,260.936 200.479,258.27 200,255.5C 201.595,257.425 201.762,259.425 200.5,261.5C 201.167,261.833 201.833,262.167 202.5,262.5C 201.948,264.003 201.948,265.669 202.5,267.5C 202.823,274.022 202.49,280.355 201.5,286.5C 199.575,281.69 198.408,276.69 198,271.5C 196.482,271.057 195.315,271.724 194.5,273.5C 191.326,274.12 188.326,273.453 185.5,271.5C 166.659,272.332 147.826,272.666 129,272.5C 126.739,271.148 124.239,270.481 121.5,270.5C 116.85,271.399 112.183,271.566 107.5,271C 105.939,270.682 104.772,269.849 104,268.5C 102.513,269.253 102.346,270.086 103.5,271C 102.175,270.852 101.008,271.018 100,271.5C 99.8091,269.292 99.3091,267.292 98.5,265.5C 104.441,258.55 110.441,251.55 116.5,244.5 Z"/></g>
<g><path style="opacity:1" fill="#6c72bd" d="M 85.5,246.5 C 85.5,247.833 85.5,249.167 85.5,250.5C 87.7522,249.667 89.9189,249.667 92,250.5C 91.6667,249.167 91.3333,247.833 91,246.5C 92.5843,247.861 94.4176,248.528 96.5,248.5C 94.1667,251.5 91.5,254.167 88.5,256.5C 87.791,255.596 86.791,255.263 85.5,255.5C 85.5,256.5 85.5,257.5 85.5,258.5C 82.1405,259.21 80.3071,257.876 80,254.5C 80.1196,262.12 78.6196,262.453 75.5,255.5C 77.9337,253.079 79.9337,250.412 81.5,247.5C 82.8333,247.167 84.1667,246.833 85.5,246.5 Z"/></g>
<g><path style="opacity:1" fill="#ee67ed" d="M 249.5,247.5 C 250.225,251.231 251.225,254.898 252.5,258.5C 252.63,267.038 253.296,275.538 254.5,284C 254.167,285.833 253.833,287.667 253.5,289.5C 252.358,288.174 251.024,287.174 249.5,286.5C 246.509,284.877 244.176,282.543 242.5,279.5C 240.264,276.417 237.764,273.417 235,270.5C 234.501,264.509 234.334,258.509 234.5,252.5C 235.148,250.502 235.981,248.502 237,246.5C 237.667,247.833 238.333,249.167 239,250.5C 239.308,249.692 239.808,249.025 240.5,248.5C 242.603,250.88 243.77,250.213 244,246.5C 244.5,247.667 245.333,248.5 246.5,249C 244.405,249.556 244.238,250.056 246,250.5C 247.174,249.456 248.341,248.456 249.5,247.5 Z"/></g>
<g><path style="opacity:1" fill="#5176ae" d="M 98.5,265.5 C 99.3091,267.292 99.8091,269.292 100,271.5C 101.008,271.018 102.175,270.852 103.5,271C 102.346,270.086 102.513,269.253 104,268.5C 104.772,269.849 105.939,270.682 107.5,271C 112.183,271.566 116.85,271.399 121.5,270.5C 124.239,270.481 126.739,271.148 129,272.5C 147.826,272.666 166.659,272.332 185.5,271.5C 188.326,273.453 191.326,274.12 194.5,273.5C 195.315,271.724 196.482,271.057 198,271.5C 198.408,276.69 199.575,281.69 201.5,286.5C 201.5,287.167 201.5,287.833 201.5,288.5C 159.572,287.506 117.572,287.173 75.5,287.5C 74.2617,287.19 74.2617,286.69 75.5,286C 83.2842,279.387 90.9508,272.554 98.5,265.5 Z"/></g>
<g><path style="opacity:1" fill="#1f0b1f" d="M 251.5,241.5 C 253.756,250.916 255.256,260.582 256,270.5C 256.5,277.826 256.666,285.159 256.5,292.5C 255.167,279.167 253.833,265.833 252.5,252.5C 251.656,248.901 251.323,245.234 251.5,241.5 Z"/></g>
<g><path style="opacity:1" fill="#a859a7" d="M 252.5,252.5 C 253.833,265.833 255.167,279.167 256.5,292.5C 256.5,292.833 256.5,293.167 256.5,293.5C 253.189,292.189 250.855,289.855 249.5,286.5C 251.024,287.174 252.358,288.174 253.5,289.5C 253.833,287.667 254.167,285.833 254.5,284C 253.296,275.538 252.63,267.038 252.5,258.5C 252.5,256.5 252.5,254.5 252.5,252.5 Z"/></g>
<g><path style="opacity:1" fill="#050914" d="M 214.5,128.5 C 214.5,142.5 214.5,156.5 214.5,170.5C 213.789,182.497 213.122,194.497 212.5,206.5C 212.5,207.833 212.5,209.167 212.5,210.5C 210.464,223.955 209.13,237.622 208.5,251.5C 206.749,265.768 205.749,280.101 205.5,294.5C 204.835,292.631 204.169,290.631 203.5,288.5C 202.83,290.291 202.163,291.958 201.5,293.5C 201.5,291.833 201.5,290.167 201.5,288.5C 201.5,287.833 201.5,287.167 201.5,286.5C 202.49,280.355 202.823,274.022 202.5,267.5C 204.003,259.031 205.003,250.364 205.5,241.5C 206.269,232.509 206.935,223.509 207.5,214.5C 207.5,212.167 207.5,209.833 207.5,207.5C 209.161,196.611 210.161,185.611 210.5,174.5C 211.442,158.986 212.776,143.653 214.5,128.5 Z"/></g>
<g><path style="opacity:1" fill="#586fb1" d="M 81.5,247.5 C 79.9337,250.412 77.9337,253.079 75.5,255.5C 78.6196,262.453 80.1196,262.12 80,254.5C 80.3071,257.876 82.1405,259.21 85.5,258.5C 85.5,257.5 85.5,256.5 85.5,255.5C 86.791,255.263 87.791,255.596 88.5,256.5C 78.5756,266.122 67.909,274.789 56.5,282.5C 52.0388,284.564 47.7054,286.898 43.5,289.5C 42.6919,289.192 42.0253,288.692 41.5,288C 43.3325,287.252 44.9991,286.252 46.5,285C 45.1354,283.318 43.6354,283.151 42,284.5C 40.7163,283.428 40.3829,282.095 41,280.5C 40.3457,281.696 39.8457,281.696 39.5,280.5C 40.6283,279.738 41.7949,279.071 43,278.5C 45,280.5 47,282.5 49,284.5C 50.3848,283.449 51.3848,282.116 52,280.5C 53.6665,281.34 53.8331,280.84 52.5,279C 53.6667,278.5 54.5,277.667 55,276.5C 55.763,279.063 56.263,279.063 56.5,276.5C 56.3333,275.833 56.1667,275.167 56,274.5C 54.1483,275.426 51.9817,276.093 49.5,276.5C 48.4937,276.062 48.4937,275.396 49.5,274.5C 54.1019,273.736 57.4352,271.236 59.5,267C 62.2889,266.759 64.9556,266.092 67.5,265C 66.9781,264.439 66.6448,263.772 66.5,263C 67.5549,261.493 68.5549,259.993 69.5,258.5C 73.4741,254.862 77.4741,251.195 81.5,247.5 Z"/></g>
<g><path style="opacity:1" fill="#343d7a" d="M 116.5,244.5 C 110.441,251.55 104.441,258.55 98.5,265.5C 90.9508,272.554 83.2842,279.387 75.5,286C 74.2617,286.69 74.2617,287.19 75.5,287.5C 93.3287,288.332 111.329,288.832 129.5,289C 130.5,289.333 131.5,289.667 132.5,290C 132.167,290.333 131.833,290.667 131.5,291C 134.5,291.333 137.5,291.667 140.5,292C 135.5,292.333 130.5,292.667 125.5,293C 124.892,293.87 124.059,294.37 123,294.5C 102.675,295.208 82.0085,295.208 61,294.5C 59.8549,295.636 58.6883,296.636 57.5,297.5C 56.1667,297.5 54.8333,297.5 53.5,297.5C 52.6016,296.842 51.6016,296.176 50.5,295.5C 51.982,293.517 53.6487,291.684 55.5,290C 61.2245,287.431 66.5578,284.265 71.5,280.5C 72.727,279.41 73.5604,278.076 74,276.5C 74.3333,276.833 74.6667,277.167 75,277.5C 76.9755,276.572 78.8089,275.405 80.5,274C 84.2921,268.375 88.6254,263.208 93.5,258.5C 98.5279,253.14 103.528,247.807 108.5,242.5C 111.792,240.075 115.292,237.742 119,235.5C 119.925,236.047 120.758,236.713 121.5,237.5C 118.225,238.62 116.558,240.953 116.5,244.5 Z"/></g>
<g><path style="opacity:1" fill="#526baf" d="M 232.5,276.5 C 233.167,276.5 233.5,276.833 233.5,277.5C 230.711,280.125 228.044,282.959 225.5,286C 226.5,286.667 227.5,286.667 228.5,286C 231.093,284.412 232.759,282.578 233.5,280.5C 233.126,281.771 233.792,282.938 235.5,284C 234.446,285.388 234.28,286.888 235,288.5C 235.333,287.833 235.667,287.167 236,286.5C 237.425,287.212 238.925,287.379 240.5,287C 243.86,289.694 246.86,292.694 249.5,296C 241.669,297.032 234.002,296.365 226.5,294C 227.888,293.111 227.722,292.611 226,292.5C 225.228,292.645 224.561,292.978 224,293.5C 222.885,292 222.052,290.333 221.5,288.5C 223.822,283.181 227.489,279.181 232.5,276.5 Z"/></g>
<g><path style="opacity:1" fill="#536fab" d="M 69.5,258.5 C 68.5549,259.993 67.5549,261.493 66.5,263C 66.6448,263.772 66.9781,264.439 67.5,265C 64.9556,266.092 62.2889,266.759 59.5,267C 57.4352,271.236 54.1019,273.736 49.5,274.5C 48.4937,275.396 48.4937,276.062 49.5,276.5C 51.9817,276.093 54.1483,275.426 56,274.5C 56.1667,275.167 56.3333,275.833 56.5,276.5C 56.263,279.063 55.763,279.063 55,276.5C 54.5,277.667 53.6667,278.5 52.5,279C 53.8331,280.84 53.6665,281.34 52,280.5C 51.3848,282.116 50.3848,283.449 49,284.5C 47,282.5 45,280.5 43,278.5C 41.7949,279.071 40.6283,279.738 39.5,280.5C 39.8457,281.696 40.3457,281.696 41,280.5C 40.3829,282.095 40.7163,283.428 42,284.5C 43.6354,283.151 45.1354,283.318 46.5,285C 44.9991,286.252 43.3325,287.252 41.5,288C 42.0253,288.692 42.6919,289.192 43.5,289.5C 47.7054,286.898 52.0388,284.564 56.5,282.5C 49.5134,287.994 42.18,292.994 34.5,297.5C 28.1904,298.752 21.8571,298.752 15.5,297.5C 17.5222,293.064 19.5222,288.731 21.5,284.5C 21.369,285.239 21.5357,285.906 22,286.5C 28.758,283.205 35.5913,280.038 42.5,277C 51.905,271.308 60.905,265.141 69.5,258.5 Z"/></g>
<g><path style="opacity:1" fill="#070413" d="M 157.5,179.5 C 157.5,180.167 157.5,180.833 157.5,181.5C 142.336,202.676 126.003,223.009 108.5,242.5C 103.528,247.807 98.5279,253.14 93.5,258.5C 86.3269,264.838 78.9935,271.005 71.5,277C 62.2767,284.099 52.9434,290.932 43.5,297.5C 43.5,297.833 43.5,298.167 43.5,298.5C 42.596,297.791 42.2627,296.791 42.5,295.5C 39.8333,296.167 37.1667,296.833 34.5,297.5C 42.18,292.994 49.5134,287.994 56.5,282.5C 67.909,274.789 78.5756,266.122 88.5,256.5C 91.5,254.167 94.1667,251.5 96.5,248.5C 101.873,244.129 106.539,239.129 110.5,233.5C 116.509,227.49 122.175,221.157 127.5,214.5C 132.5,207.833 137.5,201.167 142.5,194.5C 146.167,189.833 149.833,185.167 153.5,180.5C 154.721,179.972 155.887,179.305 157,178.5C 157.399,178.728 157.565,179.062 157.5,179.5 Z"/></g>
<g><path style="opacity:1" fill="#374177" d="M 75.5,287.5 C 117.572,287.173 159.572,287.506 201.5,288.5C 201.5,290.167 201.5,291.833 201.5,293.5C 200.566,294.568 200.232,295.901 200.5,297.5C 152.833,297.5 105.167,297.5 57.5,297.5C 58.6883,296.636 59.8549,295.636 61,294.5C 82.0085,295.208 102.675,295.208 123,294.5C 124.059,294.37 124.892,293.87 125.5,293C 130.5,292.667 135.5,292.333 140.5,292C 137.5,291.667 134.5,291.333 131.5,291C 131.833,290.667 132.167,290.333 132.5,290C 131.5,289.667 130.5,289.333 129.5,289C 111.329,288.832 93.3287,288.332 75.5,287.5 Z"/></g>
<g><path style="opacity:1" fill="#343d7b" d="M 143.5,288.5 C 160.837,288.333 178.17,288.5 195.5,289C 197.947,290.229 198.113,291.729 196,293.5C 195.333,290.833 194.667,290.833 194,293.5C 193.692,292.692 193.192,292.025 192.5,291.5C 190.751,293.531 188.751,293.865 186.5,292.5C 179.909,293.005 173.409,294.005 167,295.5C 165.373,295.375 163.873,294.875 162.5,294C 164.5,293.667 166.5,293.333 168.5,293C 165.167,292.333 161.833,292.333 158.5,293C 153.022,295.181 147.356,295.848 141.5,295C 146.797,293.866 146.797,293.032 141.5,292.5C 141.527,290.801 142.194,289.467 143.5,288.5 Z"/></g>
<g><path style="opacity:1" fill="#5368a2" d="M 232.5,276.5 C 227.489,279.181 223.822,283.181 221.5,288.5C 222.052,290.333 222.885,292 224,293.5C 224.561,292.978 225.228,292.645 226,292.5C 227.722,292.611 227.888,293.111 226.5,294C 234.002,296.365 241.669,297.032 249.5,296C 246.86,292.694 243.86,289.694 240.5,287C 238.925,287.379 237.425,287.212 236,286.5C 235.667,287.167 235.333,287.833 235,288.5C 234.28,286.888 234.446,285.388 235.5,284C 233.792,282.938 233.126,281.771 233.5,280.5C 232.759,282.578 231.093,284.412 228.5,286C 227.5,286.667 226.5,286.667 225.5,286C 228.044,282.959 230.711,280.125 233.5,277.5C 240.194,283.527 246.527,289.86 252.5,296.5C 238.167,297.833 223.833,297.833 209.5,296.5C 216.451,289.214 223.451,281.88 230.5,274.5C 231.522,274.855 232.189,275.522 232.5,276.5 Z"/></g>
<g><path style="opacity:1" fill="#393e6b" d="M 93.5,258.5 C 88.6254,263.208 84.2921,268.375 80.5,274C 78.8089,275.405 76.9755,276.572 75,277.5C 74.6667,277.167 74.3333,276.833 74,276.5C 73.5604,278.076 72.727,279.41 71.5,280.5C 66.5578,284.265 61.2245,287.431 55.5,290C 53.6487,291.684 51.982,293.517 50.5,295.5C 51.6016,296.176 52.6016,296.842 53.5,297.5C 50.1667,297.5 46.8333,297.5 43.5,297.5C 52.9434,290.932 62.2767,284.099 71.5,277C 78.9935,271.005 86.3269,264.838 93.5,258.5 Z"/></g>
<g><path style="opacity:1" fill="#1b1c3b" d="M 201.5,293.5 C 201.5,295.167 201.5,296.833 201.5,298.5C 148.833,298.5 96.1667,298.5 43.5,298.5C 43.5,298.167 43.5,297.833 43.5,297.5C 46.8333,297.5 50.1667,297.5 53.5,297.5C 54.8333,297.5 56.1667,297.5 57.5,297.5C 105.167,297.5 152.833,297.5 200.5,297.5C 200.232,295.901 200.566,294.568 201.5,293.5 Z"/></g>
<g><path style="opacity:1" fill="#39446a" d="M 208.5,296.5 C 208.833,296.5 209.167,296.5 209.5,296.5C 223.833,297.833 238.167,297.833 252.5,296.5C 253.043,296.56 253.376,296.893 253.5,297.5C 246,297.833 238.5,298.167 231,298.5C 223.136,298.497 215.636,297.831 208.5,296.5 Z"/></g>
<g><path style="opacity:1" fill="#110c18" d="M 269.5,300.5 C 269.917,299.876 270.584,299.543 271.5,299.5C 274.475,300.139 277.475,300.639 280.5,301C 276.878,302.106 273.211,302.439 269.5,302C 270.738,301.31 270.738,300.81 269.5,300.5 Z"/></g>
<g><path style="opacity:1" fill="#110c19" d="M -0.5,302.5 C -0.5,302.167 -0.5,301.833 -0.5,301.5C 0.738195,300.588 2.07153,300.421 3.5,301C 2.25501,301.791 0.921673,302.291 -0.5,302.5 Z"/></g>
<g><path style="opacity:1" fill="#110c19" d="M 282.5,303.5 C 282.5,303.833 282.5,304.167 282.5,304.5C 275.833,304.167 275.833,303.833 282.5,303.5 Z"/></g>
<g><path style="opacity:1" fill="#110c19" d="M 82.5,309.5 C 81.8333,308.167 81.8333,308.167 82.5,309.5 Z"/></g>
<g><path style="opacity:1" fill="#110c19" d="M 85.5,309.5 C 87.8333,308.167 90.1667,308.167 92.5,309.5C 90.1667,309.5 87.8333,309.5 85.5,309.5 Z"/></g>
<g><path style="opacity:1" fill="#110c19" d="M 152.5,309.5 C 154.167,308.167 155.833,308.167 157.5,309.5C 155.833,309.5 154.167,309.5 152.5,309.5 Z"/></g>
<g><path style="opacity:1" fill="#110c19" d="M 191.5,309.5 C 190.833,308.167 190.833,308.167 191.5,309.5 Z"/></g>
</svg>
